<?xml version="1.0" encoding="UTF-8"?>
<!DOCTYPE svg PUBLIC "-//W3C//DTD SVG 1.1//EN" "http://www.w3.org/Graphics/SVG/1.1/DTD/svg11.dtd">
<!-- Creator: CorelDRAW -->
<svg xmlns="http://www.w3.org/2000/svg" xml:space="preserve" width="3337px" height="359px" style="shape-rendering:geometricPrecision; text-rendering:geometricPrecision; image-rendering:optimizeQuality; fill-rule:evenodd; clip-rule:evenodd"
viewBox="0 0 3337 359.155"
 xmlns:xlink="http://www.w3.org/1999/xlink">
 <defs>
  <style type="text/css">
   <![CDATA[
    .fil7 {fill:none}
    .fil0 {fill:#0E9146}
    .fil3 {fill:#FEFEFE}
    .fil2 {fill:black}
    .fil10 {fill:#006CB1}
    .fil4 {fill:#08AFE6}
    .fil1 {fill:#1F1A17}
    .fil17 {fill:#277F39}
    .fil18 {fill:#4CB2E8}
    .fil16 {fill:#4F4B4C}
    .fil8 {fill:#DA251D}
    .fil15 {fill:#E5EB14}
    .fil12 {fill:#E6E6E6}
    .fil14 {fill:#ED1E23}
    .fil6 {fill:#FEF400}
    .fil9 {fill:white}
    .fil5 {fill:black}
    .fil11 {fill:black;fill-rule:nonzero}
    .fil13 {fill:#E6E6E6;fill-rule:nonzero}
   ]]>
  </style>
 </defs>
 <g id="Layer_x0020_1">
  <metadata id="CorelCorpID_0Corel-Layer"/>
  <g id="_423685800">
   <g>
    <path id="_423687120" class="fil0" d="M241.284 167.411c-13.2783,0.435799 -27.5663,3.36829 -37.8484,12.3748 -4.94968,4.33555 -7.77942,9.11162 -9.74937,15.3628 -2.11758,6.7224 -3.07185,14.5857 -3.62811,21.6045 -0.303524,3.82889 -0.509022,7.48298 -1.20701,11.2776 -0.7594,4.12533 -6.42951,3.92455 -6.02205,7.457 0.253921,2.20261 0.0921201,4.62254 5.07605,10.4119 1.65698,2.81202 4.19146,4.19028 7.25623,5.25321 5.21423,1.80697 17.282,1.95932 22.5694,0.511385 5.64058,-1.54596 11.9154,-5.23667 16.871,-8.36875 6.11654,-3.8655 13.4153,-11.7418 18.8197,-18.7866 5.40438,-7.046 11.1064,-14.2987 21.3045,-18.0815 3.70252,-1.37353 6.02087,-1.35818 9.9159,-1.55659 1.83532,-0.0944821 5.02172,0.294076 7.0153,0.683814 1.99357,0.389739 2.52976,0.539729 4.43003,1.11607 1.90027,0.576341 2.70809,0.797193 2.99036,0.858606 0.283446,0.0614134 -0.200775,-1.4999 -0.812546,-3.39781 -0.612953,-1.89909 -1.51644,-3.86314 -2.13175,-5.48351 -0.967261,-3.15098 -1.9298,-4.20327 -3.46395,-7.05663 -1.61683,-3.01044 -3.18523,-4.75481 -5.5272,-7.32118 -2.04318,-2.23923 -4.07454,-4.2824 -6.50391,-6.11299 -4.33673,-3.2679 -10.6115,-6.4236 -16.8462,-8.26482 -6.23464,-1.8424 -14.9731,-2.72817 -22.508,-2.48134z"/>
    <path id="_423687048" class="fil1" d="M176.259 247.978c-0.17243,-3.4545 4.88945,-3.46395 5.0359,-0.373204 0.155896,3.29861 -4.88591,3.38955 -5.0359,0.373204zm1.83886 3.44624l-0.175973 10.5525c-2.58054,-3.40018 -9.36554,-13.1873 -7.83257,-18.1795l2.96792 -6.14606c2.12112,-0.0330687 10.308,-0.369661 11.6733,0.251559 2.18136,0.992062 3.48403,5.50713 3.03051,8.63685l-8.3286 15.4089 -0.00472411 -10.8064c1.22472,-0.829081 2.72699,-1.37944 2.64668,-3.54662 -0.144085,-3.93282 -6.41888,-4.05328 -6.55942,0.0307067 -0.0921201,2.69274 1.71013,2.24041 2.58291,3.79818zm-8.46914 -2.61243l-37.7255 -1.00978c13.5771,-1.68178 15.5931,-16.4789 21.9695,-18.287 1.20229,-0.341317 6.88775,0.366118 8.93328,0.427532 2.67975,0.0826719 2.73526,1.02513 5.79766,4.1702 1.892,1.94397 3.93872,2.60062 2.00066,5.99725 -1.64045,2.87344 -1.44321,5.29809 -0.975528,8.7018zm22.1112 -20.3833c2.25458,0.0555082 4.3698,0.226757 6.64446,0.151171 1.8613,-0.0614134 4.61073,-0.604686 6.11772,-0.56335 3.25373,0.088577 5.40083,3.86668 7.02475,6.43305l14.979 11.9449c-1.12906,0.94364 -2.53803,1.53061 -3.88085,2.08924 -7.49834,3.12145 -17.9433,5.12566 -25.6011,2.00893l-8.24475 -4.04738c-0.311791,-2.24986 -0.043698,-3.44742 -0.929468,-5.53429 -2.03963,-4.81032 -4.23162,-3.93046 0.611772,-8.98289 1.18103,-1.23181 2.26639,-2.23923 3.27853,-3.49938zm-18.6071 -31.4873l1.51408 -0.0295257 9.5734 0.00236205 -0.00354308 39.9624 -11.0839 -0.0224395 0 -39.9128zm-64.3636 33.0156c16.0301,-0.0968442 20.7022,-6.11181 27.8923,-6.9964 1.82587,-0.224395 2.8321,0.987338 4.74891,1.9605l10.0907 3.91392c-6.20748,5.56145 -9.52498,17.1556 -20.5381,17.5134 -5.53547,0.179516 -20.6491,-13.6893 -22.1939,-16.3915zm98.9429 -2.51677c3.34939,-1.50581 6.33266,-2.03018 9.62419,-3.78637 4.68868,-2.50141 4.01195,-2.87698 9.70686,-0.51729l21.8183 5.43036c-1.17512,2.35379 -16.0525,16.473 -20.988,16.421 -10.7969,-0.112198 -13.8735,-11.841 -20.1613,-17.5477zm-120.351 -17.0363c1.23063,-0.656651 5.53783,-1.73493 7.40386,-2.49905 10.7261,-4.39224 15.4502,-10.4143 23.095,-1.9109 3.17578,3.53245 3.74976,3.7474 7.24914,6.922 4.91307,4.45601 7.06136,5.67956 10.3257,8.55063l-13.2216 5.09022c-2.86517,0.911753 -13.2665,3.27735 -15.7419,1.16331l-4.54459 -4.64616c-3.81708,-4.08517 -9.71512,-9.95251 -14.5656,-12.6701zm135.858 9.56868c4.38161,-2.8262 6.73894,-5.26502 10.132,-8.61441 11.6567,-11.5044 11.0391,-13.9007 22.8529,-7.80422 7.32827,3.78165 10.3635,4.11706 12.9559,5.37131 -8.63803,6.8535 -6.87476,5.92403 -13.9479,12.7941 -3.47576,3.37655 -3.31514,8.68881 -19.4196,3.39545 -1.66643,-0.547996 -11.7335,-4.56112 -12.5732,-5.14219zm-162.676 -12.6393c1.0334,-1.24835 3.50647,-3.23601 5.07487,-4.45365 9.52144,-7.39205 21.3364,-15.0746 34.1565,-10.2064 3.92219,1.48927 9.46711,5.10322 11.3863,7.43692l-24.0587 8.59787c-2.64668,0.479497 -3.82653,-0.647203 -6.11772,-1.45148 -8.54945,-2.99745 -12.8885,-1.45502 -20.4412,0.0767667zm186.24 -9.31239c3.21003,-1.70422 5.26265,-4.73001 11.4182,-6.99994 9.65135,-3.55961 19.4551,1.11135 26.9735,6.53462 1.48101,1.06765 8.85416,6.75665 9.81905,8.33214l-14.2077 -1.38534c-4.22217,0.656651 -8.12074,3.59268 -12.0677,2.65022 -7.71801,-1.84358 -13.883,-6.77555 -18.8882,-7.92941 -0.275179,-0.0625944 -1.47274,-0.277541 -1.54242,-0.299981 -0.837348,-0.278722 -0.146447,-0.00944821 -0.90939,-0.433437l-0.595237 -0.468868zm-188.98 9.34074c0.995605,-10.5407 7.79832,-18.5209 14.2621,-24.8346 4.18792,-4.09108 7.89989,-6.15315 13.5783,-3.27499 3.0187,1.52943 7.37433,7.65423 9.06556,10.5229l-21.3896 5.86616c-4.08399,1.71603 -14.4569,11.1347 -15.5163,11.7205zm204.701 -18.9826c1.57077,-2.99626 5.68546,-9.08446 8.85652,-10.6162 2.10695,-1.01804 6.11417,-1.66407 8.02508,-0.447609 7.64833,4.86819 17.589,17.6233 18.3862,28.7934l-6.95979 -6.14724c-8.07114,-6.40471 -16.6218,-12.2095 -28.308,-11.5823zm-152.149 -12.4457c3.2927,-0.413359 6.33503,-0.840891 9.50726,-1.46447 4.71938,-0.929468 6.61611,-1.85185 8.99942,-0.153533 4.86229,3.46513 8.26128,5.43981 10.9469,10.8761 3.16633,6.40825 2.59708,11.7666 1.68769,19.331 -1.09954,9.16359 -1.03576,10.7048 0.973166,19.0807l-12.2626 -8.13019c-1.65344,-1.2885 -9.76945,-8.54118 -10.0824,-9.70095 -0.662556,-2.45181 2.09042,-13.6149 -7.62471,-26.9746 -0.694444,-0.95545 -1.63454,-1.83413 -2.14474,-2.86399zm-28.536 -0.0543272c0.824357,-0.673185 4.67096,-2.44472 5.63586,-2.84391 2.05026,-0.846796 5.02527,-2.14947 7.2704,-2.44l9.49309 5.02527c2.6644,0.393282 3.82771,-0.0118103 5.37013,1.87311 0.843253,1.03104 2.24867,2.92422 3.0565,4.22689 3.68716,5.9382 6.78972,14.0625 5.92875,22.8304 -6.04567,-5.31108 -11.3343,-10.83 -19.0275,-13.5676 -3.76629,-1.34047 -2.68211,-1.11135 -4.71938,-3.70016 -4.04856,-5.14809 -5.54374,-9.84031 -13.7318,-10.6942l0.723969 -0.709797zm157.518 24.622c-0.323601,-7.3578 2.9443,-15.8163 6.14724,-20.6609 7.62116,-11.5268 4.02258,-0.268093 16.0679,-10.8914l14.216 5.95001c-5.54964,1.93098 -6.93735,1.66289 -10.2348,6.22755 -3.32223,4.6001 -3.77692,7.02829 -7.64715,8.42662 -4.04029,1.46093 -7.53141,3.76039 -10.0919,5.99607l-8.34513 7.57629 -0.112198 -2.62424zm-22.8753 21.751c4.72293,-13.2724 -2.94312,-25.3921 2.27584,-37.7787 2.4211,-5.74451 6.12126,-7.93532 10.5218,-11.2894 1.71367,-1.30622 1.64635,-1.14678 4.02612,-0.733417 5.3406,0.925925 8.19278,1.79398 14.1333,2.05617 -1.3629,1.85657 -2.59708,3.39899 -3.75448,5.43154 -1.05229,1.84831 -2.07506,3.7037 -2.93839,5.85317 -1.75855,4.37452 -2.90651,9.53915 -2.90651,14.7097l-3.29861 7.80895c-1.93098,1.905 -3.33286,3.112 -5.49414,5.21659 -2.67503,2.60416 -8.94746,7.16529 -12.5649,8.72542zm-53.6245 6.18386c-4.71702,0.00472411 -16.3371,-1.2389 -18.2835,-4.35917 -3.34349,-5.36068 -2.24395,-13.4283 -1.4692,-19.9735 0.894037,-7.5444 1.31684,-13.0846 -1.89791,-19.5224 -3.80763,-7.62235 -9.56986,-9.41042 -10.9115,-11.3697l17.6469 5.00991c3.85487,2.53921 7.6129,7.03301 9.91944,12.278 3.90565,8.88014 4.75481,19.1126 3.99659,29.0686 -0.751133,9.85567 -1.27905,5.13274 0.999148,8.86833zm30.7776 -1.4255c0.0472411,-0.102749 0.133456,-0.220852 0.180697,-0.286989 0.956632,-1.31448 0.944821,-0.853882 1.25071,-1.59202 0.328325,-0.792469 -0.429894,-5.6583 -0.546815,-7.38142 -1.52352,-22.5375 5.16463,-47.0804 33.912,-45.9809l-1.77981 1.47983c-11.5304,8.6274 -12.3488,15.9462 -10.5666,31.0716 0.601143,5.10676 1.44794,16.754 -2.53921,19.3771 -4.17965,2.74825 -14.294,3.49938 -19.9109,3.31278zm82.6305 -53.4603c-3.93282,-2.27466 -8.88722,-4.65206 -13.8653,-6.03741l-6.88893 -21.6659c0.155896,4.76662 2.5581,9.23917 0.40273,14.5361 -1.79398,4.40995 -6.83106,4.50444 -12.3323,4.11115 -11.7796,-0.843253 -23.0123,-8.74786 -40.345,2.16836 -6.08583,3.83243 -12.8815,10.5289 -16.1387,16.7954 -2.32426,4.47137 -2.62778,6.88657 -4.21981,11.8551l-9.55332 0.0708616c-3.51828,-8.79629 -4.74773,-14.2196 -11.8563,-20.7317 -4.99456,-4.57412 -11.6189,-9.78835 -20.9455,-11.5871 -11.9378,-2.303 -18.0792,2.02782 -28.6623,2.91477 -17.393,1.45739 -12.1705,-10.4852 -11.4843,-18.6496 -6.13071,9.06084 -9.80134,11.8587 -6.8842,21.9352l-13.7838 5.95474c-11.3745,5.81183 -23.5201,20.7518 -23.8709,35.5454 6.26653,-2.09632 10.745,-4.11942 17.6174,-3.60331 6.54879,0.492488 11.443,3.26908 15.4277,6.00316 3.42025,2.34788 8.51166,7.13458 11.3178,10.1179l10.3352 10.7249c3.47458,3.45923 6.98695,6.87121 11.5788,9.86393 4.44066,2.89352 8.00854,5.19534 13.5901,7.46409 8.30025,3.37419 18.189,4.92134 27.1872,2.09987 2.86989,-0.899942 4.93551,-2.1849 7.18064,-3.00335 1.21173,2.46008 6.45195,12.6429 8.80573,13.1106 8.29789,-9.45412 7.04364,-11.489 9.57104,-15.5163 5.89332,2.9691 8.66283,4.91189 15.6805,5.41855 11.4264,0.825538 23.0678,-4.45838 31.5901,-10.6493 6.41888,-4.66387 11.3638,-9.65489 16.4919,-15.2719 0.933011,-1.02277 1.50345,-1.94397 2.44236,-2.93839 0.963718,-1.02041 1.59084,-1.48219 2.46362,-2.49905 11.0332,-12.8448 24.6752,-21.6872 42.5607,-12.5744 -2.43055,-9.45176 -2.77069,-14.9447 -7.70738,-21.8006 -1.6617,-2.30891 -2.73762,-3.45923 -4.57175,-5.37721 -3.22184,-3.36947 -6.42715,-6.06339 -11.1335,-8.78448z"/>
    <polygon id="_423679080" class="fil2" points="178.764,0 191.527,4.15367 203.513,8.69944 217.131,14.2467 228.771,19.4999 241.138,25.4736 252.224,31.2736 265.85,39.3117 277.397,46.9033 290.192,56.1885 299.12,63.3892 310.656,73.4079 321.116,83.645 339.707,105.102 356.929,129.599 356.923,143.021 356.305,155.827 355.237,170.493 353.838,183.189 351.98,196.798 349.89,209.135 346.457,224.579 342.805,237.907 337.929,252.948 333.841,263.664 327.878,277.733 321.376,290.846 306.715,315.158 288.742,339.108 275.975,343.251 263.606,346.621 249.33,350.137 236.825,352.729 223.309,355.168 210.931,356.991 195.184,358.499 181.38,359.144 165.57,359.155 154.116,358.576 138.895,357.252 124.416,355.121 96.765,348.69 68.4358,338.995 60.5501,328.133 53.5241,317.408 45.7683,304.916 39.4392,293.823 32.9436,281.72 27.3845,270.511 21.0837,255.998 16.2049,243.068 11.3107,228.035 8.32033,216.962 4.87528,202.075 2.42819,187.644 -0,159.356 0.465324,129.415 8.35812,118.559 16.3844,108.561 25.868,97.3237 34.4612,87.8755 43.9637,77.9572 52.9053,69.2058 64.7592,58.7289 75.5467,50.0932 88.3302,40.7915 97.9366,34.5249 111.029,26.6487 123.996,19.8625 150.146,8.81046 "/>
    <polygon id="_423680976" class="fil3" points="178.715,6.07166 189.604,9.61474 201.396,14.0861 214.848,19.5661 226.321,24.7449 238.539,30.6441 249.41,36.3343 262.789,44.2247 274.107,51.6664 286.674,60.7863 295.405,67.8275 306.731,77.6655 316.899,87.6145 335.142,108.671 351.14,131.428 351.137,142.881 350.528,155.477 349.473,169.966 348.095,182.48 346.259,195.923 344.208,208.022 340.838,223.186 337.259,236.249 332.471,251.021 328.472,261.502 322.616,275.315 316.297,288.061 301.911,311.919 285.213,334.169 274.321,337.704 262.154,341.018 248.05,344.491 235.723,347.047 222.373,349.455 210.233,351.244 194.771,352.724 181.243,353.357 165.715,353.367 154.513,352.802 139.568,351.502 125.495,349.429 98.3606,343.119 72.0426,334.112 65.3155,324.845 58.4029,314.296 50.7416,301.954 44.5023,291.019 38.0857,279.065 32.6341,268.071 26.4491,253.823 21.6659,241.15 16.8592,226.384 13.9338,215.554 10.5525,200.937 8.17388,186.912 5.79057,159.153 6.22283,131.336 12.957,122.074 20.8534,112.24 30.2213,101.138 38.6916,91.826 48.0772,82.0294 56.8475,73.4457 68.4854,63.1589 79.0591,54.6945 91.6158,45.5581 101.011,39.4309 113.865,31.6976 126.469,25.1015 152.129,14.2562 "/>
    <polygon id="_423681048" class="fil4" points="178.667,12.1421 187.682,15.0746 199.278,19.4728 212.565,24.8854 223.873,29.9886 235.938,35.8158 246.597,41.3938 259.728,49.1378 270.815,56.4283 283.156,65.384 291.69,72.267 302.807,81.9231 312.682,91.5851 330.576,112.239 345.352,133.259 345.349,142.74 344.751,155.128 343.709,169.438 342.35,181.772 340.537,195.048 338.527,206.91 335.22,221.792 331.714,234.592 327.011,249.096 323.102,259.34 317.356,272.899 311.218,285.276 297.106,308.679 281.684,329.229 272.667,332.155 260.701,335.415 246.771,338.846 234.623,341.365 221.437,343.744 209.535,345.496 194.36,346.949 181.106,347.569 165.859,347.578 154.909,347.027 140.241,345.75 126.573,343.738 99.9574,337.548 75.6495,329.229 70.0798,321.557 63.2829,311.183 55.7149,298.992 49.5653,288.217 43.2291,276.41 37.8838,265.632 31.8133,251.647 27.127,239.231 22.4064,224.732 19.5484,214.146 16.2297,199.8 13.9196,186.178 11.5811,158.95 11.9803,133.259 17.556,125.59 25.3212,115.919 34.5746,104.954 42.922,95.7753 52.1919,86.1004 60.7898,77.6856 72.2127,67.5902 82.5715,59.2958 94.9002,50.3259 104.084,44.3357 116.701,36.7453 128.941,30.3394 154.112,19.7007 "/>
    <g>
     <g>
      <g>
       <g>
        <path id="_423681072" class="fil2" d="M186.148 243.71c-1.7243,-2.01129 -3.53245,-4.39578 -4.48436,-6.88302 -0.581065,-1.51644 -0.669642,-2.64786 -0.850339,-4.21272 -0.0992062,-0.852701 0.0389739,-1.67233 0.459419,-2.42465 0.907028,-1.62391 2.71754,-2.29355 4.12651,-3.36238 0.732236,-0.553901 1.27787,-1.16331 1.4503,-2.0975 0.677909,-3.68126 0.891675,-7.40504 1.18693,-11.1288 0.576341,-7.2515 1.50108,-14.9731 3.69189,-21.9258 2.04436,-6.48974 5.02881,-11.5079 10.1757,-16.0159 10.5442,-9.23681 25.1051,-12.2839 38.7542,-12.7326 2.72227,-0.089758 5.45752,-0.0342498 8.17625,0.140542 4.87882,0.314153 10.0931,1.01096 14.7888,2.39866 5.94647,1.75619 12.3653,4.77371 17.3068,8.49749 2.47661,1.86484 4.61781,4.00959 6.70233,6.29369 2.29473,2.51322 4.10525,4.58238 5.7327,7.61054 0.618858,1.1515 1.29204,2.27348 1.905,3.42616 0.664918,1.25307 1.19284,2.50378 1.65226,3.84542 0.638935,1.8613 1.53179,3.62221 2.14002,5.50949 0.257464,0.796012 0.520833,1.60029 0.738142,2.40693 0.256283,0.954269 0.50666,2.19671 -0.647203,2.74116 -0.380291,0.179516 -0.680271,0.168887 -0.962537,0.107473 -1.01214,-0.220852 -2.11049,-0.585789 -3.10256,-0.886951 -0.693263,-0.210223 -1.38889,-0.423989 -2.09042,-0.604686 -0.72515,-0.185421 -1.46211,-0.333049 -2.19671,-0.477135 -1.0334,-0.201956 -2.09042,-0.353127 -3.13681,-0.47123 -1.12788,-0.12637 -2.39276,-0.245654 -3.52655,-0.187783 -1.65344,0.0850339 -3.34112,0.125189 -4.98275,0.336593 -1.57077,0.201956 -3.0187,0.581065 -4.50444,1.13142 -9.40688,3.48993 -14.764,9.92062 -20.6597,17.6067 -1.90027,2.47661 -3.89739,4.88827 -5.97954,7.21371 -2.09514,2.33961 -4.29185,4.61191 -6.60902,6.73067 -2.0479,1.87311 -4.2576,3.70016 -6.60666,5.18471 -5.17526,3.27026 -11.3438,6.91845 -17.2607,8.54 -1.68651,0.462962 -3.5419,0.688538 -5.28273,0.832624 -2.13175,0.175973 -4.28949,0.225576 -6.42833,0.185421 -2.14474,-0.0413359 -4.30602,-0.173611 -6.43423,-0.441704 -1.7432,-0.219671 -3.61748,-0.538548 -5.28037,-1.11489 -3.31987,-1.1515 -6.10355,-2.69746 -7.9613,-5.77168z"/>
       </g>
       <path id="_423681600" class="fil0" d="M240.705 164.372c-13.2783,0.43698 -27.5663,3.36829 -37.8484,12.3748 -4.94968,4.33555 -7.77942,9.11162 -9.74937,15.364 -2.11758,6.72122 -3.07185,14.5845 -3.62811,21.6033 -0.303524,3.82889 -0.509022,7.48298 -1.20701,11.2776 -0.7594,4.12533 -6.42951,3.92455 -6.02205,7.457 0.253921,2.20261 0.0921201,4.62254 5.07605,10.4131 1.65698,2.81084 4.19146,4.1891 7.25623,5.25203 5.21423,1.80697 17.282,1.9605 22.5694,0.511385 5.64058,-1.54596 11.9154,-5.23667 16.871,-8.36875 6.11654,-3.8655 13.4153,-11.7406 18.8197,-18.7866 5.40438,-7.046 11.1064,-14.2975 21.3045,-18.0815 3.70252,-1.37353 6.02087,-1.35818 9.9159,-1.55659 1.83532,-0.0933011 5.02172,0.294076 7.0153,0.683814 1.99357,0.389739 2.52976,0.539729 4.43003,1.11607 1.90027,0.577522 2.70809,0.797193 2.99036,0.858606 0.283446,0.0625944 -0.200775,-1.49872 -0.812546,-3.39781 -0.612953,-1.89909 -1.51644,-3.86314 -2.13175,-5.48351 -0.967261,-3.1498 -1.9298,-4.20209 -3.46395,-7.05663 -1.61683,-3.01044 -3.18523,-4.75481 -5.5272,-7.32 -2.04318,-2.23923 -4.07454,-4.28358 -6.50391,-6.11417 -4.33673,-3.26672 -10.6115,-6.4236 -16.8462,-8.26482 -6.23464,-1.8424 -14.9731,-2.72817 -22.508,-2.48134z"/>
       <path id="_423681768" class="fil5" d="M187.404 225.218c0.675547,0.718064 0.791288,0.467687 2.20498,0.467687l1.83177 -0.12637c1.10072,-0.0413359 2.91005,0.13818 3.89975,-0.0200775 0.731055,-0.116922 1.11135,-0.0838529 1.8672,-0.0933011 1.41841,-0.0177154 4.92016,-1.00269 5.76813,-0.764124 0.233843,0.0661375 0.496031,0.177154 0.719245,0.269274 4.70285,1.92507 9.09745,12.0677 13.9645,15.3132 4.30602,2.87108 6.31613,2.86399 11.5067,4.15013l0.385015 -0.608229c-0.569255,-0.973166 -0.66728,-0.663737 -1.70895,-0.984976 -5.31344,-1.63926 -4.94732,-0.687357 -9.88874,-3.9529 -2.92186,-1.93098 -6.7909,-8.98525 -9.9407,-12.1091 -0.4606,-0.455876 -0.761762,-0.968442 -1.28614,-1.40896l-1.56132 -1.25661c0.490126,-0.224395 1.32511,-0.377928 1.88374,-0.565712 0.596418,-0.201956 1.19638,-0.428713 1.80815,-0.642478 1.02749,-0.359032 2.5581,-0.993243 3.53481,-1.48691l6.48147 -3.44033c0.604686,0.0318877 1.48691,0.266912 2.10577,0.364937 6.54761,1.03812 14.3884,5.67365 21.301,6.38345l9.56277 0.481859 0.381472 -0.746409 -0.421626 -0.562169c-1.62982,-0.191326 -3.94463,0.0484221 -5.61106,-0.146447 -0.922382,-0.107473 -1.95814,-0.0555082 -3.37419,-0.299981 -6.96569,-1.2011 -11.7111,-3.46749 -18.2221,-5.6642 -1.24126,-0.418083 -2.55692,-0.663737 -3.84188,-0.935373 0.245654,-0.386196 0.971985,-0.765305 1.41605,-1.09245 0.842072,-0.618858 8.85416,-8.01563 9.42341,-8.5837 1.72076,-1.72194 3.4238,-3.42261 5.14455,-5.14573 0.858606,-0.859787 1.83177,-1.5873 2.69392,-2.44945l2.63487 -2.51086c1.43849,-0.168887 3.02815,-0.0472411 4.3698,0.223214 3.31042,0.666099 7.10506,2.42347 10.2608,3.70252l13.2818 5.37131 0.596418 -0.385015c0,-1.16804 -0.967261,-1.21173 -2.73171,-1.92389 -1.10426,-0.445247 -2.17899,-0.936554 -3.2868,-1.36763 -4.45719,-1.73493 -8.91321,-3.46277 -13.335,-5.28391 -2.94666,-1.2141 -4.51625,-1.52825 -7.58337,-1.74674 1.06647,-1.35346 4.15249,-3.42025 5.60161,-4.52333 1.66525,-1.26606 5.02291,-2.78486 6.98105,-3.30924 5.49768,-1.47156 7.77942,-1.37471 13.2771,-0.00118103 3.89148,0.971985 7.41094,2.57936 11.0402,4.39342 1.17866,0.590513 2.22151,1.20701 3.34939,1.79634 2.43764,1.27197 7.23615,4.56231 9.13642,6.29723 0.902304,0.823176 1.82941,1.58966 2.69274,2.45299 1.33456,1.33338 1.0582,1.2141 2.6892,2.50496l0.465324 -0.492488 0 -0.146447c-0.0496031,-0.462962 -0.226757,-0.657832 -0.581065,-1.00978 -0.902304,-0.898761 -1.7432,-1.95932 -2.69274,-2.81911 -3.81826,-3.45568 -8.25774,-6.66808 -12.9358,-8.99116 -3.60449,-1.79044 -6.22165,-3.16988 -10.1108,-4.46664 -2.85336,-0.950726 -5.94647,-1.72666 -8.95572,-1.94633 -1.16095,-0.0850339 -2.39276,0.0413359 -3.55371,0.124008 0.981433,-1.4999 1.92625,-3.06358 2.86635,-4.606 0.9897,-1.62391 1.85067,-2.97501 3.22775,-4.36744 1.07237,-1.08536 3.27381,-2.32544 4.7808,-2.69038 1.10898,-0.269274 2.18372,-0.320058 3.28562,-0.512566 1.74674,-0.305886 1.28259,-0.0413359 2.9939,-0.798374l0.0177154 -0.400368 -0.422808 -0.435799c-0.556264,-0.27636 -6.37164,0.806641 -7.14875,1.11725 -5.24494,2.08805 -7.28457,6.37991 -10.0423,10.9056 -0.591694,0.970804 -0.92002,2.05026 -1.98294,2.30418 -5.9382,1.41369 -8.93683,3.84542 -13.5228,7.42275l-6.59131 6.02678c0,-3.36238 -0.0212585,-6.47084 0.518471,-9.64899 0.668461,-3.93754 1.90736,-7.8928 3.89384,-11.2965 1.08891,-1.86602 4.98393,-7.11096 6.37754,-9.07855l-0.612953 -0.612953c-0.960175,0.262188 -4.10525,4.92842 -4.8115,5.98899 -1.6558,2.48606 -2.8073,3.89621 -3.96825,6.81216 -1.34401,3.37537 -1.82587,6.14134 -2.45181,9.67615 -0.40273,2.27584 -0.159439,8.52937 -0.292895,9.26161 -0.124008,0.682633 -6.58304,6.64327 -7.56329,7.62589 -0.856244,0.857425 -1.86366,1.60738 -2.6951,2.45063 -0.809003,0.819632 -1.73138,1.62982 -2.63369,2.38804 -0.94364,0.79365 -1.8365,1.5684 -2.82029,2.32544l-6.45903 3.83125c0.410997,-1.72312 1.57667,-3.14035 1.71249,-6.86295l0.125189 -1.95814c-0.00354308,-0.784202 0.125189,-1.27315 0.122827,-2.08215l0.00472411 -3.18995c-0.0177154,-0.475954 -0.11456,-0.493669 -0.132275,-0.969623 -0.0248016,-0.681452 0.0354308,-1.41133 0.00944821,-2.09278l-0.347222 -6.14488c-0.198412,-1.24362 -0.0224395,-6.84995 -0.0248016,-8.55063 -0.00236205,-1.23653 0.210223,-2.67266 0.438161,-3.84897 0.41454,-2.13057 1.63336,-3.93872 2.86635,-5.70908 0.56335,-0.807822 1.41959,-1.57195 1.96287,-2.32544 0.912934,-1.26606 7.21489,-6.82279 8.85061,-8.33687l-0.429894 -0.592875c-1.08064,-0.0295257 -1.30858,0.826719 -2.09987,1.40896 -0.602324,0.444066 -1.1267,0.9897 -1.74083,1.4444 -1.0582,0.784202 -2.44472,2.04199 -3.386,2.98327 -2.14947,2.14947 -4.13123,4.18083 -5.72916,6.88775 -2.07624,3.51828 -2.07979,6.38463 -2.07979,10.5395 0,1.46565 -0.175973,4.99574 0.0484221,6.19921 0.179516,0.963718 0.00826719,1.98531 0.17243,3.0128 0.0649565,0.409816 0.0259826,1.12552 0.0236205,1.5684l0.238567 4.41704c0.16062,1.37353 0.0531462,3.28089 -0.107473,4.65561l-0.13818 3.04705c-0.042517,0.387377 -0.161801,0.974347 -0.224395,1.36763 -0.329506,2.06562 -0.71334,2.87816 -1.48337,4.76544 -0.544453,1.3381 -0.203137,1.05938 -1.50935,1.6747 -4.73828,2.22742 -10.0635,3.39545 -15.2766,3.58796l-3.05768 0.127551c-1.11135,0 -2.00538,0.124008 -3.06122,0.121646 -1.03458,-0.00118103 -2.14593,-0.333049 -2.3278,0.794831l0 0.0850339z"/>
      </g>
      <polygon id="_423681912" class="fil2" points="299.71,202.756 301.249,206.78 297.23,205.645 "/>
     </g>
     <g>
      <g>
       <g>
        <path id="_423682032" class="fil2" d="M171.366 243.71c1.72312,-2.01129 3.53127,-4.39578 4.48436,-6.88302 0.581065,-1.51644 0.669642,-2.64786 0.850339,-4.21272 0.0980252,-0.852701 -0.0389739,-1.67233 -0.459419,-2.42465 -0.907028,-1.62391 -2.71754,-2.29355 -4.12769,-3.36238 -0.731055,-0.553901 -1.27787,-1.16331 -1.44912,-2.0975 -0.677909,-3.68126 -0.892856,-7.40504 -1.18811,-11.1288 -0.57516,-7.2515 -1.50108,-14.9731 -3.69071,-21.9258 -2.04554,-6.48974 -5.02999,-11.5079 -10.1757,-16.0159 -10.5442,-9.23681 -25.1051,-12.2839 -38.7542,-12.7326 -2.72227,-0.089758 -5.4587,-0.0342498 -8.17625,0.140542 -4.87882,0.314153 -10.0931,1.01096 -14.79,2.39866 -5.94529,1.75619 -12.3642,4.77371 -17.3068,8.49749 -2.47543,1.86484 -4.61663,4.00959 -6.70114,6.29369 -2.29473,2.51322 -4.10643,4.58238 -5.73388,7.61054 -0.618858,1.1515 -1.29086,2.27348 -1.90381,3.42616 -0.666099,1.25307 -1.19284,2.50378 -1.65344,3.84542 -0.637754,1.8613 -1.53061,3.62221 -2.14002,5.50949 -0.256283,0.796012 -0.519652,1.60029 -0.736961,2.40693 -0.256283,0.954269 -0.50666,2.19671 0.647203,2.74116 0.37911,0.179516 0.680271,0.168887 0.961356,0.107473 1.01332,-0.220852 2.11049,-0.585789 3.10374,-0.886951 0.692082,-0.210223 1.38771,-0.423989 2.08924,-0.604686 0.726331,-0.185421 1.46211,-0.333049 2.19789,-0.477135 1.0334,-0.201956 2.09042,-0.353127 3.13681,-0.47123 1.12788,-0.12637 2.39276,-0.245654 3.52655,-0.187783 1.65344,0.0850339 3.33994,0.125189 4.98157,0.336593 1.57195,0.201956 3.01988,0.581065 4.50444,1.13142 9.40688,3.48993 14.764,9.92062 20.6597,17.6067 1.90027,2.47661 3.89857,4.88827 5.98072,7.21371 2.09514,2.33961 4.29067,4.61191 6.60902,6.73067 2.04672,1.87311 4.2576,3.70016 6.60666,5.18471 5.17408,3.27026 11.3438,6.91845 17.2607,8.54 1.68651,0.462962 3.54072,0.688538 5.28155,0.832624 2.13293,0.175973 4.28949,0.225576 6.42951,0.185421 2.14356,-0.0413359 4.30602,-0.173611 6.43423,-0.441704 1.7432,-0.219671 3.61748,-0.538548 5.28037,-1.11489 3.31987,-1.1515 6.10355,-2.69746 7.9613,-5.77168z"/>
       </g>
       <path id="_423682440" class="fil0" d="M116.808 164.372c13.2771,0.43698 27.5663,3.36829 37.8484,12.3748 4.9485,4.33555 7.77942,9.11162 9.74819,15.364 2.11876,6.72122 3.07185,14.5845 3.62929,21.6033 0.303524,3.82889 0.509022,7.48298 1.20701,11.2776 0.7594,4.12533 6.42951,3.92455 6.02205,7.457 -0.253921,2.20261 -0.0921201,4.62254 -5.07605,10.4131 -1.65816,2.81084 -4.19264,4.1891 -7.25623,5.25203 -5.21423,1.80697 -17.2831,1.9605 -22.5706,0.511385 -5.6394,-1.54596 -11.9142,-5.23667 -16.8698,-8.36875 -6.11654,-3.8655 -13.4165,-11.7406 -18.8208,-18.7866 -5.40438,-7.046 -11.1052,-14.2975 -21.3045,-18.0815 -3.70134,-1.37353 -6.01969,-1.35818 -9.9159,-1.55659 -1.83413,-0.0933011 -5.02054,0.294076 -7.0153,0.683814 -1.99357,0.389739 -2.52858,0.539729 -4.42885,1.11607 -1.90027,0.577522 -2.70927,0.797193 -2.99154,0.858606 -0.282265,0.0625944 0.201956,-1.49872 0.813727,-3.39781 0.612953,-1.89909 1.51644,-3.86314 2.13175,-5.48351 0.96608,-3.1498 1.9298,-4.20209 3.46277,-7.05663 1.61801,-3.01044 3.18523,-4.75481 5.5272,-7.32 2.04436,-2.23923 4.07454,-4.28358 6.50391,-6.11417 4.33791,-3.26672 10.6127,-6.4236 16.8462,-8.26482 6.23464,-1.8424 14.9742,-2.72817 22.5092,-2.48134z"/>
       <path id="_423682536" class="fil5" d="M170.109 225.218c-0.676728,0.718064 -0.791288,0.467687 -2.20498,0.467687l-1.83295 -0.12637c-1.10072,-0.0413359 -2.90887,0.13818 -3.89975,-0.0200775 -0.731055,-0.116922 -1.11016,-0.0838529 -1.86602,-0.0933011 -1.41841,-0.0177154 -4.92016,-1.00269 -5.76813,-0.764124 -0.233843,0.0661375 -0.496031,0.177154 -0.720426,0.269274 -4.70167,1.92507 -9.09627,12.0677 -13.9633,15.3132 -4.3072,2.87108 -6.31731,2.86399 -11.5067,4.15013l-0.386196 -0.608229c0.570436,-0.973166 0.66728,-0.663737 1.71013,-0.984976 5.31344,-1.63926 4.94732,-0.687357 9.88874,-3.9529 2.92068,-1.93098 6.7909,-8.98525 9.9407,-12.1091 0.4606,-0.455876 0.761762,-0.968442 1.28614,-1.40896l1.56132 -1.25661c-0.490126,-0.224395 -1.32511,-0.377928 -1.88374,-0.565712 -0.597599,-0.201956 -1.19638,-0.428713 -1.80815,-0.642478 -1.02749,-0.359032 -2.5581,-0.993243 -3.53481,-1.48691l-6.48265 -3.44033c-0.604686,0.0318877 -1.48573,0.266912 -2.10459,0.364937 -6.54761,1.03812 -14.3884,5.67365 -21.301,6.38345l-9.56277 0.481859 -0.381472 -0.746409 0.420445 -0.562169c1.631,-0.191326 3.94581,0.0484221 5.61106,-0.146447 0.922382,-0.107473 1.95814,-0.0555082 3.37537,-0.299981 6.96569,-1.2011 11.7111,-3.46749 18.2221,-5.6642 1.24126,-0.418083 2.55692,-0.663737 3.84188,-0.935373 -0.246835,-0.386196 -0.971985,-0.765305 -1.41605,-1.09245 -0.842072,-0.618858 -8.85416,-8.01563 -9.42341,-8.5837 -1.72194,-1.72194 -3.4238,-3.42261 -5.14455,-5.14573 -0.858606,-0.859787 -1.83177,-1.5873 -2.6951,-2.44945l-2.63487 -2.51086c-1.43731,-0.168887 -3.02815,-0.0472411 -4.36862,0.223214 -3.31042,0.666099 -7.10506,2.42347 -10.2608,3.70252l-13.2818 5.37131 -0.597599 -0.385015c0.00118103,-1.16804 0.968442,-1.21173 2.7329,-1.92389 1.10426,-0.445247 2.17899,-0.936554 3.28562,-1.36763 4.45838,-1.73493 8.91321,-3.46277 13.3362,-5.28391 2.94666,-1.2141 4.51625,-1.52825 7.58337,-1.74674 -1.06647,-1.35346 -4.15249,-3.42025 -5.60279,-4.52333 -1.66407,-1.26606 -5.02291,-2.78486 -6.97987,-3.30924 -5.49886,-1.47156 -7.7806,-1.37471 -13.2783,-0.00118103 -3.89148,0.971985 -7.40976,2.57936 -11.0402,4.39342 -1.17866,0.590513 -2.22033,1.20701 -3.34821,1.79634 -2.43882,1.27197 -7.23615,4.56231 -9.1376,6.29723 -0.902304,0.823176 -1.82941,1.58966 -2.69274,2.45299 -1.33338,1.33338 -1.0582,1.2141 -2.6892,2.50496l-0.464143 -0.492488 0 -0.146447c0.0496031,-0.462962 0.226757,-0.657832 0.579884,-1.00978 0.902304,-0.898761 1.74438,-1.95932 2.69392,-2.81911 3.81826,-3.45568 8.25774,-6.66808 12.9358,-8.99116 3.60449,-1.79044 6.22047,-3.16988 10.1108,-4.46664 2.85336,-0.950726 5.94529,-1.72666 8.95454,-1.94633 1.16095,-0.0850339 2.39394,0.0413359 3.55489,0.124008 -0.981433,-1.4999 -1.92625,-3.06358 -2.86635,-4.606 -0.9897,-1.62391 -1.85067,-2.97501 -3.22775,-4.36744 -1.07237,-1.08536 -3.27499,-2.32544 -4.7808,-2.69038 -1.10898,-0.269274 -2.18372,-0.320058 -3.28562,-0.512566 -1.74674,-0.305886 -1.28378,-0.0413359 -2.9939,-0.798374l-0.0177154 -0.400368 0.421626 -0.435799c0.557445,-0.27636 6.37282,0.806641 7.14993,1.11725 5.24376,2.08805 7.28457,6.37991 10.0411,10.9056 0.591694,0.970804 0.921201,2.05026 1.98412,2.30418 5.9382,1.41369 8.93683,3.84542 13.5228,7.42275l6.59131 6.02678c0,-3.36238 0.0200775,-6.47084 -0.519652,-9.64899 -0.668461,-3.93754 -1.90736,-7.8928 -3.89384,-11.2965 -1.08773,-1.86602 -4.98393,-7.11096 -6.37636,-9.07855l0.611772 -0.612953c0.961356,0.262188 4.10643,4.92842 4.81268,5.98899 1.6558,2.48606 2.8073,3.89621 3.96825,6.81216 1.34401,3.37537 1.82587,6.14134 2.45063,9.67615 0.403911,2.27584 0.159439,8.52937 0.294076,9.26161 0.124008,0.682633 6.58186,6.64327 7.56329,7.62589 0.855063,0.857425 1.86248,1.60738 2.6951,2.45063 0.809003,0.819632 1.73138,1.62982 2.63369,2.38804 0.94364,0.79365 1.83532,1.5684 2.81911,2.32544l6.45903 3.83125c-0.409816,-1.72312 -1.57667,-3.14035 -1.71249,-6.86295l-0.124008 -1.95814c0.00354308,-0.784202 -0.12637,-1.27315 -0.122827,-2.08215l-0.00472411 -3.18995c0.0165344,-0.475954 0.11456,-0.493669 0.132275,-0.969623 0.0248016,-0.681452 -0.0354308,-1.41133 -0.0106292,-2.09278l0.348403 -6.14488c0.198412,-1.24362 0.0212585,-6.84995 0.0248016,-8.55063 0.00118103,-1.23653 -0.210223,-2.67266 -0.439342,-3.84897 -0.413359,-2.13057 -1.63218,-3.93872 -2.86635,-5.70908 -0.562169,-0.807822 -1.41841,-1.57195 -1.96169,-2.32544 -0.912934,-1.26606 -7.21489,-6.82279 -8.85061,-8.33687l0.428713 -0.592875c1.08182,-0.0295257 1.30976,0.826719 2.09987,1.40896 0.603505,0.444066 1.1267,0.9897 1.74083,1.4444 1.0582,0.784202 2.44591,2.04199 3.38718,2.98327 2.14829,2.14947 4.13123,4.18083 5.72916,6.88775 2.07624,3.51828 2.07979,6.38463 2.07979,10.5395 0,1.46565 0.174792,4.99574 -0.0484221,6.19921 -0.179516,0.963718 -0.00826719,1.98531 -0.17243,3.0128 -0.0649565,0.409816 -0.0259826,1.12552 -0.0248016,1.5684l-0.237386 4.41704c-0.161801,1.37353 -0.0543272,3.28089 0.107473,4.65561l0.13818 3.04705c0.042517,0.387377 0.161801,0.974347 0.224395,1.36763 0.328325,2.06562 0.71334,2.87816 1.48219,4.76544 0.545634,1.3381 0.203137,1.05938 1.51053,1.6747 4.73828,2.22742 10.0635,3.39545 15.2754,3.58796l3.05768 0.127551c1.11253,0 2.00656,0.124008 3.0624,0.121646 1.03458,-0.00118103 2.14593,-0.333049 2.3278,0.794831l0 0.0850339z"/>
      </g>
      <polygon id="_423682944" class="fil2" points="57.803,202.756 56.2641,206.78 60.2831,205.645 "/>
     </g>
    </g>
    <g>
     <path id="_423682848" class="fil2" d="M178.996 67.6244c-5.70672,-3.13444 -8.28018,-10.3375 -8.28018,-16.5344 0,-6.39172 2.7329,-14.6683 8.15263,-18.424l0.824357 -0.571617 0.824357 0.571617c5.41973,3.75685 8.15263,12.0323 8.15263,18.424 0,6.19685 -2.57346,13.3999 -8.28018,16.5344l-0.696806 0.382653 -0.696806 -0.382653zm15.5352 87.1987c-0.675547,-3.95408 0.191326,-8.05814 1.85894,-11.6615 1.9298,-4.16548 4.97212,-7.81485 8.55536,-10.6623 1.23299,-0.980252 2.53803,-1.87193 3.89266,-2.67621 3.46749,-2.05499 7.37315,-3.59504 11.3331,-4.36744 3.50765,-0.684995 7.37551,-0.81727 10.8277,0.225576l0.960175 0.290533 0.0649565 1.00033c0.236205,3.59859 -0.767667,7.33772 -2.22742,10.5997 -1.64753,3.68244 -4.03084,7.14049 -6.8157,10.0529 -1.08891,1.13851 -2.2534,2.20852 -3.48639,3.18759 -3.58323,2.84746 -7.82548,4.98748 -12.3193,5.92403 -3.88558,0.811365 -8.0794,0.728693 -11.7784,-0.823176l-0.732236 -0.307067 -0.133456 -0.783021zm0.523195 -26.8188c-0.884589,-3.69661 -0.321239,-7.63061 1.03104,-11.1406 1.5625,-4.05328 4.208,-7.68848 7.41448,-10.5985 1.10308,-1.00151 2.2782,-1.92507 3.50765,-2.76715 5.5957,-3.83597 13.8416,-6.86767 20.6691,-5.28509l0.976709 0.225576 0.131094 0.994424c0.916477,6.94916 -2.89588,14.8656 -7.25268,20.0668 -0.956632,1.14205 -1.98767,2.22269 -3.09075,3.2242 -3.20649,2.91123 -7.07907,5.19415 -11.2635,6.35865 -3.62457,1.0086 -7.59282,1.19047 -11.1867,-0.0472411l-0.752314 -0.258645 -0.18424 -0.772391zm-5.57799 -22.0132c-1.09481,-3.17224 -0.940097,-6.67516 -0.0519652,-9.87693 1.02159,-3.68244 3.02697,-7.09088 5.58507,-9.91236 0.878684,-0.970804 1.82823,-1.87901 2.8321,-2.7199 4.57766,-3.84188 11.5339,-7.18891 17.654,-6.38699l0.994424 0.131094 0.226757 0.976709c1.39715,6.01261 -1.25307,13.2641 -4.62844,18.1961 -0.739323,1.08064 -1.54951,2.11404 -2.42819,3.08484 -2.5581,2.82265 -5.75396,5.15046 -9.31712,6.52753 -3.10019,1.19756 -6.57005,1.69477 -9.83441,0.915296l-0.773572 -0.18424 -0.258645 -0.751133zm-7.03656 -22.319c-0.905847,-2.65849 -0.770029,-5.58389 -0.0177154,-8.2601 0.860968,-3.05768 2.53566,-5.88506 4.67096,-8.22349 3.99069,-4.37098 11.0154,-8.31088 17.0658,-7.49479l0.994424 0.134637 0.223214 0.976709c1.1456,5.01464 -1.0641,11.0249 -3.89148,15.1254 -0.616496,0.894037 -1.29204,1.7491 -2.02428,2.55102 -2.1353,2.33961 -4.79851,4.26351 -7.76525,5.39729 -2.59708,0.993243 -5.49886,1.39361 -8.22703,0.732236l-0.772391 -0.186602 -0.256283 -0.752314zm-20.9042 72.241c-3.69779,1.55187 -7.89162,1.63454 -11.7784,0.823176 -4.49263,-0.936554 -8.73605,-3.07657 -12.3181,-5.92403 -1.23417,-0.979071 -2.39748,-2.04908 -3.48639,-3.18759 -2.78486,-2.91241 -5.16935,-6.37046 -6.8157,-10.0529 -1.45975,-3.262 -2.46362,-7.00113 -2.2286,-10.5997l0.0661375 -1.00033 0.960175 -0.290533c3.45096,-1.04285 7.32,-0.910571 10.8277,-0.225576 3.9588,0.772391 7.86564,2.31245 11.3319,4.36744 1.35582,0.804279 2.66085,1.69595 3.89384,2.67621 3.58323,2.84746 6.62556,6.49683 8.55418,10.6623 1.66761,3.60331 2.53566,7.70738 1.86012,11.6615l-0.133456 0.783021 -0.733417 0.307067zm-0.592875 -26.8778c-3.59386,1.23772 -7.56329,1.05584 -11.1879,0.0472411 -4.1832,-1.16449 -8.05578,-3.44742 -11.2623,-6.35865 -1.10308,-1.00151 -2.1353,-2.08215 -3.09193,-3.2242 -4.35563,-5.20124 -8.16798,-13.1177 -7.25268,-20.0668l0.131094 -0.994424 0.976709 -0.225576c6.8287,-1.58258 15.0746,1.44912 20.6703,5.28509 1.22945,0.842072 2.40457,1.76563 3.50765,2.76715 3.20649,2.91005 5.85199,6.54525 7.4133,10.5985 1.35346,3.51001 1.91681,7.44401 1.03222,11.1406l-0.185421 0.772391 -0.751133 0.258645zm5.48233 -22.1088c-3.26436,0.779478 -6.73539,0.282265 -9.83441,-0.915296 -3.56316,-1.37708 -6.75902,-3.70488 -9.31712,-6.52753 -0.879865,-0.970804 -1.69005,-2.0042 -2.42937,-3.08484 -3.37419,-4.93197 -6.0256,-12.1835 -4.62726,-18.1961l0.226757 -0.976709 0.994424 -0.131094c6.12008,-0.801917 13.0751,2.54511 17.654,6.38699 1.00269,0.840891 1.95224,1.7491 2.8321,2.7199 2.5581,2.82147 4.56231,6.22992 5.58389,9.91236 0.888132,3.20176 1.04285,6.70469 -0.0507841,9.87693l-0.259826 0.751133 -0.772391 0.18424zm7.0401 -22.3155c-2.72817,0.661375 -5.62995,0.261007 -8.22703,-0.732236 -2.96674,-1.13379 -5.62995,-3.05768 -7.76525,-5.39729 -0.732236,-0.801917 -1.40778,-1.65698 -2.02428,-2.55102 -2.82738,-4.10052 -5.03826,-10.1108 -3.89148,-15.1254l0.223214 -0.976709 0.993243 -0.134637c6.05158,-0.816089 13.0763,3.12382 17.067,7.49479 2.1353,2.33843 3.80999,5.16581 4.66978,8.22349 0.753495,2.67621 0.889313,5.60161 -0.0165344,8.2601l-0.256283 0.752314 -0.772391 0.186602z"/>
    </g>
    <g>
     <path id="_423683472" class="fil6" d="M179.693 66.356l0 0 0 0 0 0c4.4135,-2.42347 7.53023,-8.34513 7.53023,-15.2659 0,-6.92082 -3.11673,-14.177 -7.53023,-17.2347l0 0 0 0 0 0 0 0c-4.41232,3.05768 -7.53023,10.3139 -7.53023,17.2347 0,6.92082 3.11791,12.8425 7.53023,15.2659l0 0z"/>
     <path id="_423683352" class="fil6" d="M195.957 154.579l0 0.00118103 0 0 0.00118103 0c6.31731,2.64904 15.2636,0.958994 22.6367,-4.90008 7.37315,-5.85789 12.4634,-15.3226 11.9862,-22.6131l0 0 0 0 0 -0.00118103 0 0.00118103c-6.99404,-2.11286 -17.3635,0.707435 -24.7354,6.56533 -7.37315,5.85907 -11.0414,14.1936 -9.88874,20.9467l0 0z"/>
     <path id="_423683736" class="fil6" d="M196.461 127.668l0 0 0 0 0.00118103 0c6.11063,2.10341 14.4286,-0.042517 21.0057,-6.01497 6.57832,-5.97245 10.784,-15.1963 9.88283,-22.0309l0 0 0 0 0 0 -0.00118103 0c-6.71414,-1.55541 -16.3005,1.74201 -22.8777,7.71447 -6.57714,5.97127 -9.51435,14.0448 -8.0109,20.3314l0 0z"/>
     <path id="_423683880" class="fil6" d="M190.844 105.52l0 0 0 0 0 0c5.48941,1.30858 12.5354,-1.26134 17.7437,-7.00821 5.20951,-5.74688 8.08176,-14.1204 6.72004,-19.9818l0 0 0 0 0 -0.00118103 0 0.00118103c-5.96655,-0.783021 -14.0176,2.89588 -19.2271,8.64275 -5.20833,5.74806 -7.07671,13.0114 -5.23667,18.3461l0 0.00118103z"/>
     <path id="_423684336" class="fil6" d="M183.809 83.2057l0.00118103 0 0 0 0 0c4.49971,1.09009 10.2903,-0.997967 14.5821,-5.69963 4.29185,-4.70049 6.67398,-11.5634 5.57445,-16.3785l0 0 0 0 -0.00118103 0 0 0c-4.89417,-0.659013 -11.5115,2.33489 -15.8033,7.03656 -4.29303,4.70167 -5.84726,10.6576 -4.35326,15.0404l0 0.00118103z"/>
     <path id="_423684456" class="fil6" d="M160.977 154.579l-0.00118103 0.00118103 0 0 0 0c-6.31731,2.64904 -15.2648,0.958994 -22.6367,-4.90008 -7.37315,-5.85789 -12.4634,-15.3226 -11.9862,-22.6131l0 0 0 0 0 -0.00118103 0 0.00118103c6.99404,-2.11286 17.3623,0.707435 24.7354,6.56533 7.37315,5.85907 11.0414,14.1936 9.88755,20.9467l0.00118103 0z"/>
     <path id="_423684624" class="fil6" d="M160.473 127.668l-0.00118103 0 0 0 0 0c-6.11181,2.10341 -14.4286,-0.042517 -21.0069,-6.01497 -6.57714,-5.97245 -10.7828,-15.1963 -9.88165,-22.0309l0 0 0 0 0 0 0 0c6.71532,-1.55541 16.3005,1.74201 22.8788,7.71447 6.57714,5.97127 9.51435,14.0448 8.00972,20.3314l0.00118103 0z"/>
     <path id="_423684960" class="fil6" d="M166.09 105.52l-0.00118103 0 0 0 0 0c-5.48823,1.30858 -12.5342,-1.26134 -17.7437,-7.00821 -5.20951,-5.74688 -8.08176,-14.1204 -6.71886,-19.9818l0 0 0 0 0 -0.00118103 0 0.00118103c5.96655,-0.783021 14.0176,2.89588 19.2259,8.64275 5.20951,5.74806 7.07789,13.0114 5.23785,18.3461l0 0.00118103z"/>
     <path id="_423685728" class="fil6" d="M173.124 83.2057l0 0 0 0 0 0c-4.50089,1.09009 -10.2903,-0.997967 -14.5833,-5.69963 -4.29185,-4.70049 -6.67398,-11.5634 -5.57326,-16.3785l0 0 0 0 0 0 0 0c4.89417,-0.659013 11.5126,2.33489 15.8045,7.03656 4.29185,4.70167 5.84726,10.6576 4.35208,15.0404l0 0.00118103z"/>
    </g>
    <polyline id="_423680256" class="fil7" points="282.01,211.444 281.685,211.406 267.647,234.226 "/>
    <polyline id="_423685824" class="fil7" points="75.7062,211.444 76.0309,211.406 90.0698,234.226 "/>
    <g>
     <path id="_423686160" class="fil2" d="M98.9641 251.547c-5.0418,-4.1147 -9.76591,-8.61441 -14.1215,-13.4495l-8.07232 4.9674 -19.5401 -31.7625 20.9278 -2.45063 0.472411 0.83971c5.34178,9.48246 12.0134,18.1866 19.7763,25.8161 21.4415,21.0719 49.9751,32.8692 80.0606,32.8692 30.0843,0 58.6167,-11.7973 80.0594,-32.868 7.76289,-7.62943 14.4345,-16.3336 19.7763,-25.8172l0.473592 -0.83971 20.9278 2.45063 -19.5413 31.7625 -8.0735 -4.96858c-4.35563,4.8363 -9.07973,9.33601 -14.1204,13.4507l5.25675 8.21994 -35.1414 22.4785 -6.38581 -9.98558c-7.38142,2.71518 -15.0073,4.73119 -22.7655,6.02087l0 10.5336 -40.9332 0 0 -10.5359c-7.75698,-1.28968 -15.3829,-3.30451 -22.7643,-6.01851l-6.38581 9.98558 -35.1426 -22.4785 5.25675 -8.21994z"/>
    </g>
    <path id="_423686184" class="fil8" d="M178.467 269.823l0 0c-43.3838,-0.142904 -81.1767,-24.0575 -101.097,-59.4222l-4.59892 0.538548 -13.1212 1.53533 17.5949 28.5986 7.87154 -4.84339c4.89299,5.53901 10.2678,10.6399 16.0572,15.2388l-0.292895 -0.233843 -5.17526 8.09239 32.705 20.9195 6.237 -9.75174 -0.175973 -0.0673185c7.96839,3.02933 16.3253,5.26738 24.9752,6.61729l0 10.3222 19.0204 0 0 0 19.0193 0 0 -10.3186c8.58724,-1.34047 16.8851,-3.55607 24.8004,-6.55352l6.237 9.75174 32.7038 -20.9195 -5.17408 -8.09239c-0.927106,0.741685 -1.86602,1.4692 -2.81439,2.18372 6.75783,-5.09495 12.9854,-10.8595 18.5835,-17.1969l-0.00708616 0.00708616 7.8739 4.84457 17.5938 -28.5986 -13.12 -1.53533 -4.59892 -0.538548c-19.9204,35.3647 -57.7132,59.2793 -101.097,59.4222z"/>
    <path id="_423686496" class="fil5" d="M172.397 237.654c-0.0177154,-1.34637 0.572798,-4.74064 0.620039,-6.23936l0.367299 -9.31121c0.0543272,-1.80461 -0.0413359,-18.0059 -0.200775,-19.0476 -0.140542,-0.911753 0.0366118,-1.80225 -0.10393,-2.714 -0.231481,-1.50699 -0.167706,-3.39309 -0.412178,-5.2225 -0.445247,-3.32931 -4.4442,-12.6689 -6.42124,-15.6285 -3.0187,-4.52097 -6.75193,-7.86446 -11.0686,-11.104 -4.45838,-3.34821 -9.57222,-5.88506 -15.0675,-6.98105 -7.06372,-1.40896 -12.5626,-0.686176 -19.4539,1.10544 -4.74536,1.23417 -14.4995,3.04823 -18.8563,0.579884 -2.73171,-1.54833 -3.68244,-4.49381 -3.51355,-7.51842 0.134637,-2.41756 0.879865,-7.25741 1.22709,-9.91944 -0.774753,0.700349 -4.06155,5.63232 -4.82804,6.8098 -3.14744,4.8363 -3.86904,8.29317 -2.44827,13.8204 0.474773,1.84713 1.0641,2.2534 2.59708,3.28325 3.16869,2.12939 3.80054,3.03996 7.60463,4.15485 2.01483,0.591694 3.39781,0.400368 5.41146,0.468868 1.65226,0.0566893 0.190145,0.302343 2.64314,-0.0366118 4.76072,-0.659013 7.79596,-1.25307 12.5248,-2.17545 1.60383,-0.314153 3.86668,-0.347222 5.52366,-0.351946 2.70337,-0.00944821 12.1906,2.23214 14.5266,3.11319 5.95592,2.24631 9.32184,5.64767 12.337,11.0603 3.83125,6.87476 5.71499,15.8104 5.72207,23.6784 0.00354308,3.63048 0.0224395,5.05834 -0.236205,8.5837l-0.510203 5.38312c-0.125189,1.02277 0.225576,0.97789 0.904666,1.79988 1.15032,1.39243 4.6001,4.98039 5.5461,6.21338 0.388558,0.50666 5.18589,5.90631 5.565,6.19567z"/>
    <path id="_423680112" class="fil5" d="M196.793 190.777c0.271636,0.389739 0.296438,0.398006 0.799555,0.248016l0.00590513 -0.647203c-0.333049,0.177154 -0.413359,0.0850339 -0.80546,0.399187z"/>
    <path id="_423686640" class="fil5" d="M83.8552 218.134c0.351946,0.354308 0.173611,0.296438 0.693263,0.265731 -0.0496031,-0.353127 0.00708616,-0.474773 -0.265731,-0.814908 -0.273998,0.635392 0.194869,0.225576 -0.427532,0.549177z"/>
    <path id="_423679920" class="fil5" d="M184.538 236.844c0.0177154,-1.34637 -0.572798,-4.74064 -0.62122,-6.23936l-0.366118 -9.31121c-0.0555082,-1.80461 0.0401549,-18.0059 0.200775,-19.0476 0.140542,-0.911753 -0.0377928,-1.80225 0.102749,-2.714 0.232662,-1.50699 0.167706,-3.39309 0.412178,-5.2225 0.445247,-3.33049 4.44538,-12.6689 6.42124,-15.6297 3.0187,-4.52097 6.75193,-7.86327 11.0686,-11.1028 4.45956,-3.34821 9.5734,-5.88624 15.0687,-6.98105 7.06254,-1.40896 12.5626,-0.687357 19.4527,1.10544 4.74655,1.23417 14.5006,3.04823 18.8575,0.578703 2.73171,-1.54714 3.68126,-4.49263 3.51237,-7.51842 -0.133456,-2.41638 -0.878684,-7.25741 -1.22709,-9.91826 0.774753,0.700349 4.06155,5.63232 4.82804,6.8098 3.14862,4.8363 3.87022,8.29317 2.44945,13.8204 -0.475954,1.84713 -1.0641,2.2534 -2.59708,3.28325 -3.16869,2.12939 -3.80172,3.03996 -7.60463,4.15485 -2.01601,0.590513 -3.39899,0.400368 -5.41264,0.468868 -1.65108,0.0566893 -0.190145,0.302343 -2.64314,-0.0366118 -4.75954,-0.659013 -7.79478,-1.25307 -12.5236,-2.17663 -1.60383,-0.312972 -3.86786,-0.346041 -5.52484,-0.351946 -2.70337,-0.00826719 -12.1906,2.23214 -14.5266,3.11437 -5.95474,2.24631 -9.32066,5.64767 -12.337,11.0591 -3.83007,6.87476 -5.71499,15.8116 -5.72207,23.6796 -0.00236205,3.63048 -0.0224395,5.05834 0.237386,8.5837l0.510203 5.38312c0.125189,1.02277 -0.225576,0.97789 -0.904666,1.79988 -1.15032,1.39243 -4.6001,4.97921 -5.54728,6.21338 -0.387377,0.50666 -5.18471,5.90631 -5.56382,6.19567z"/>
    <path id="_423686760" class="fil5" d="M160.141 189.967c-0.271636,0.388558 -0.297619,0.398006 -0.800736,0.248016l-0.00472411 -0.647203c0.331868,0.177154 0.413359,0.0850339 0.80546,0.399187z"/>
    <path id="_423686712" class="fil5" d="M273.078 217.324c-0.350765,0.354308 -0.17243,0.296438 -0.692082,0.265731 0.0484221,-0.353127 -0.00708616,-0.475954 0.265731,-0.814908 0.273998,0.635392 -0.19605,0.225576 0.426351,0.549177z"/>
    <g>
     <path id="_423680856" class="fil2" d="M185.192 237.039c2.51913,2.73526 3.5915,6.76374 3.934,10.3682 0.262188,2.74471 -3.24782,8.2353 -4.79497,10.3718 -1.39125,1.92153 -3.13326,4.13714 -4.98748,5.62759l-0.881046 0.707435 -0.877503 -0.710978c-1.85067,-1.4999 -3.58914,-3.69898 -4.98275,-5.62405 -1.54833,-2.13766 -5.05597,-7.62589 -4.79497,-10.3718 0.343679,-3.60804 1.41605,-7.63534 3.93518,-10.373l0 -41.3017 13.4495 0 0 41.3064z"/>
    </g>
    <g>
     <path id="_423684576" class="fil9" d="M178.467 237.515l5.54374 0 0 -0.00354308c2.29001,2.26167 3.81472,5.88624 3.9399,10.008 0.243291,1.51171 -1.63336,5.5024 -4.57648,9.5675 -1.67824,2.31836 -3.38128,4.21508 -4.77017,5.39847l-0.13818 0.111016 -0.136999 -0.111016c-1.38771,-1.18339 -3.09075,-3.08012 -4.77017,-5.39847 -2.94194,-4.06509 -4.81859,-8.05578 -4.5753,-9.5675 0.124008,-4.12178 1.64871,-7.74635 3.9399,-10.008l0 0.00354308 5.54374 0z"/>
     <rect id="_423688920" class="fil9" x="172.924" y="196.914" width="11.0871" height="39.9401"/>
    </g>
    <ellipse id="_423680448" class="fil10" cx="178.467" cy="247.84" rx="2.70963" ry="2.7099"/>
    <path id="_423680016" class="fil11" d="M178.467 244.509c0.92002,0 1.75264,0.373204 2.35497,0.975528 0.602324,0.602324 0.975528,1.43613 0.975528,2.35497 0,0.918839 -0.373204,1.75146 -0.975528,2.35497l-0.00118103 0 0 0.00118103c-0.603505,0.602324 -1.43613,0.975528 -2.35379,0.975528 -0.917658,0 -1.75028,-0.373204 -2.35379,-0.975528l-0.00118103 -0.00118103 0 0c-0.603505,-0.603505 -0.975528,-1.43613 -0.975528,-2.35497 0,-0.918839 0.372023,-1.75264 0.975528,-2.35497 0.602324,-0.602324 1.43495,-0.975528 2.35497,-0.975528zm1.83532 1.49518c-0.470049,-0.470049 -1.11843,-0.760581 -1.83532,-0.760581 -0.716883,0 -1.36645,0.290533 -1.83532,0.760581 -0.470049,0.470049 -0.760581,1.11961 -0.760581,1.83532 0,0.718064 0.290533,1.36763 0.758219,1.8365l0.00236205 0.00118103c0.467687,0.468868 1.11725,0.7594 1.83532,0.7594 0.718064,0 1.36645,-0.290533 1.83532,-0.7594l0.00118103 -0.00118103c0.468868,-0.468868 0.7594,-1.11843 0.7594,-1.8365 0,-0.715702 -0.290533,-1.36527 -0.760581,-1.83532z"/>
    <rect id="_423680160" class="fil2" x="178.086" y="250.781" width="0.761573" height="12.1656" rx="0.295257" ry="0.295257"/>
   </g>
   <g>
    <path id="_421871816" class="fil12" d="M1070.65 121.863l148.959 0.119284 -0.101568 185.865 94.2341 -0.108654 0.0389739 -185.92 150.926 0.0248016c-1.94869,-79.8008 -71.9576,-70.1719 -160.661,-70.1719l-233.758 0.100387 0.362575 70.0904z"/>
    <path id="_421872560" class="fil12" d="M951.86 213.331l-0.0507841 -57.6931c1.47746,-57.5703 -12.8708,-102.892 93.6188,-104.331l0.134637 151.803c0,57.3837 12.813,102.715 -93.0188,104.317l0 0.0129913 -0.599961 0 -171.936 0 -0.599961 0 0 -0.0129913c-75.8845,-1.14796 -90.7678,-24.7815 -93.1157,-59.219l0 -18.5811 0 -18.6106c1.85185,-36.2717 14.5148,-61.3378 93.2704,-62.4007l0.0578703 64.7155 172.24 0z"/>
    <path id="_421882376" class="fil12" d="M1583.07 149.327l-0.0330687 0 0.0330687 -98.0193c-74.9834,0.88577 -91.1717,23.4103 -94.1337,56.5889l0 169.36 0.0259826 30.2059 94.1077 -0.235024 0 -157.901z"/>
   </g>
   <g>
    <path id="_421878872" class="fil13" d="M1610.99 180.362c1.61092,0.181878 3.18995,0.273998 4.70993,0.303524 1.5188,0.0614134 3.15925,0.0614134 4.95086,0.0614134 3.82889,0.0295257 7.44401,-0.455876 10.8761,-1.42786 3.46395,-0.971985 6.50155,-2.67384 9.2061,-5.04298 2.67266,-2.37032 4.79969,-5.65121 6.3492,-9.84386 1.54951,-4.16194 2.33843,-9.41751 2.36914,-15.7667l0 -95.8793 -20.0503 0 0 97.3378c-0.0307067,3.25019 -0.546815,5.77168 -1.54951,7.53377 -1.0334,1.7928 -2.39985,3.00807 -4.13241,3.70606 -1.70068,0.668461 -3.64465,1.00269 -5.80238,0.971985 -1.09363,0 -2.24749,0 -3.46277,-0.0295257 -1.18457,0 -2.33961,-0.0614134 -3.46395,-0.152352l0 18.228z"/>
    <path id="_4218788721" class="fil13" d="M1662.21 52.7659l0 97.1548c0,6.83578 1.12434,12.6075 3.37183,17.3776 2.24867,4.77017 5.5898,8.41481 10.0257,10.9363 4.43475,2.49197 9.93361,3.73677 16.4966,3.76747 6.56178,-0.0307067 12.0606,-1.27551 16.4954,-3.76747 4.43594,-2.52149 7.77824,-6.16614 10.0257,-10.9363 2.24867,-4.77017 3.37183,-10.5418 3.37183,-17.3776l0 -97.1548 -18.9567 0 0 98.4315c0,3.0376 -0.42517,5.43745 -1.27551,7.25977 -0.85152,1.82351 -2.03609,3.12972 -3.5856,3.95053 -1.54951,0.819632 -3.40254,1.2141 -5.52839,1.18457 -2.12703,0.0295257 -3.98006,-0.364937 -5.52957,-1.18457 -1.54951,-0.820813 -2.73408,-2.12703 -3.58442,-3.95053 -0.85152,-1.82232 -1.27669,-4.22217 -1.27669,-7.25977l0 -98.4315 -20.0503 0z"/>
    <path id="_42187887212" class="fil13" d="M1798.01 180.362c-0.971985,-2.33961 -1.58021,-4.73946 -1.85303,-7.19954 -0.243291,-2.46126 -0.364937,-5.22604 -0.334231,-8.29435l0 -19.6865c0.0307067,-4.43475 -0.395644,-8.44552 -1.21528,-11.9697 -0.850339,-3.55371 -2.24867,-6.59249 -4.19264,-9.11398 -1.94397,-2.52149 -4.58711,-4.49617 -7.89871,-5.89332l0 -0.364937c4.46546,-2.09632 7.74635,-5.25557 9.90409,-9.50844 2.15655,-4.25288 3.21948,-9.63009 3.21948,-16.1931l0 -10.0246c0.0307067,-6.56178 -1.00151,-12.0311 -3.09783,-16.3749 -2.0668,-4.345 -5.28627,-7.59518 -9.6608,-9.75174 -4.40523,-2.15774 -10.0564,-3.22066 -16.9525,-3.22066l-30.2579 0 0 127.596 20.0503 0 0 -51.9498 6.92672 0c3.0376,-0.0307067 5.52957,0.516109 7.44283,1.58021 1.94397,1.06292 3.37183,2.79431 4.31429,5.16463 0.911753,2.39985 1.36645,5.55909 1.36645,9.47774l0 20.0515c0,2.58172 0.0614134,4.70875 0.121646,6.37991 0.090939,1.66997 0.212585,3.0376 0.395644,4.13123 0.151171,1.06292 0.334231,2.00538 0.576341,2.79549 0.213766,0.788926 0.455876,1.57903 0.729874,2.36914l20.4152 0zm-32.6282 -109.368c3.52418,-0.0307067 6.13661,1.0334 7.77706,3.12972 1.64045,2.12585 2.46126,5.46815 2.43055,9.99385l0 12.5779c0,3.37183 -0.486583,6.04567 -1.45857,8.02035 -0.971985,1.97468 -2.33843,3.40254 -4.13123,4.25288 -1.7928,0.820813 -3.94935,1.24598 -6.44014,1.21528l-7.83847 0 0 -39.19 9.6608 0z"/>
    <path id="_421878872123" class="fil13" d="M1808.04 52.7659l0 97.1548c0,6.83578 1.12434,12.6075 3.37183,17.3776 2.24867,4.77017 5.5898,8.41481 10.0257,10.9363 4.43475,2.49197 9.93361,3.73677 16.4966,3.76747 6.56178,-0.0307067 12.0606,-1.27551 16.4954,-3.76747 4.43594,-2.52149 7.77824,-6.16614 10.0257,-10.9363 2.24867,-4.77017 3.37183,-10.5418 3.37183,-17.3776l0 -97.1548 -18.9567 0 0 98.4315c0,3.0376 -0.42517,5.43745 -1.27551,7.25977 -0.85152,1.82351 -2.03609,3.12972 -3.5856,3.95053 -1.54951,0.819632 -3.40254,1.2141 -5.52839,1.18457 -2.12703,0.0295257 -3.98006,-0.364937 -5.52957,-1.18457 -1.54951,-0.820813 -2.73408,-2.12703 -3.58442,-3.95053 -0.85152,-1.82232 -1.27669,-4.22217 -1.27669,-7.25977l0 -98.4315 -20.0503 0z"/>
    <path id="_4218788721234" class="fil13" d="M1878.94 83.3887c0,3.61512 0.334231,7.04837 1.09363,10.2986 0.728693,3.25137 1.94397,6.44132 3.64583,9.60056 1.70068,3.12854 3.94935,6.31849 6.80508,9.59938 2.82502,3.28207 6.3492,6.74484 10.5111,10.4214 4.34382,3.797 7.77706,7.19954 10.2678,10.2076 2.52267,3.0376 4.28358,5.95355 5.34769,8.74904 1.03222,2.76478 1.54951,5.68074 1.5188,8.74904 0,3.03878 -0.42517,5.43863 -1.27551,7.26095 -0.85152,1.82351 -2.03609,3.12972 -3.5856,3.94935 -1.54951,0.820813 -3.40254,1.21528 -5.52839,1.18457 -2.12703,0.0307067 -3.98006,-0.363756 -5.52957,-1.18457 -1.54951,-0.819632 -2.73408,-2.12585 -3.58442,-3.94935 -0.85152,-1.82232 -1.27669,-4.22217 -1.27669,-7.26095l0 -9.11398 -18.9567 0 0 7.83847c0,6.83578 1.12434,12.6075 3.37183,17.3776 2.24867,4.76899 5.5898,8.41481 10.0257,10.9363 4.43475,2.49079 9.93361,3.73677 16.4966,3.76747 6.56178,-0.0307067 12.0606,-1.27669 16.4954,-3.76747 4.43594,-2.52149 7.77824,-6.16732 10.0257,-10.9363 2.24867,-4.77017 3.37183,-10.5418 3.37183,-17.3776 0.0307067,-3.61512 -0.334231,-7.04837 -1.09363,-10.2986 -0.728693,-3.28089 -1.94397,-6.47084 -3.64583,-9.60056 -1.70068,-3.12854 -3.94935,-6.31849 -6.80508,-9.59938 -2.82502,-3.28207 -6.31849,-6.74484 -10.5111,-10.4214 -4.34382,-3.797 -7.77706,-7.19954 -10.2678,-10.2371 -2.52149,-3.00807 -4.28358,-5.92403 -5.34769,-8.71952 -1.03222,-2.76478 -1.54833,-5.71144 -1.5188,-8.74904 0.0307067,-4.52687 0.881046,-7.74753 2.61243,-9.72221 1.73257,-1.94397 4.19264,-2.91595 7.4133,-2.85572 3.22066,-0.0602324 5.68074,0.911753 7.41212,2.85572 1.73257,1.97468 2.58291,5.19534 2.61361,9.72221l0 5.28627 18.9567 0 0 -4.01077c0,-6.83578 -1.12434,-12.6382 -3.3116,-17.4072 -2.21797,-4.77017 -5.52839,-8.38529 -9.90409,-10.9068 -4.37452,-2.49079 -9.81197,-3.73677 -16.3135,-3.76747 -6.50155,0.0307067 -11.939,1.27669 -16.3147,3.76747 -4.37452,2.52149 -7.68612,6.13661 -9.90291,10.9068 -2.18726,4.76899 -3.3116,10.5714 -3.3116,17.4072z"/>
    <path id="_42187887212345" class="fil13" d="M1994.14 52.7659l-29.3473 0 -20.4152 127.596 18.4098 0 3.46395 -23.1493 24.6067 0 3.46395 23.1493 20.2333 0 -20.4152 -127.596zm-15.8588 22.6025l0.364937 0 9.47774 64.5277 -19.3216 0 9.47892 -64.5277z"/>
    <polygon id="_421878872123456" class="fil13" points="2066.69,180.362 2087.29,180.362 2087.29,52.7659 2069.43,52.7659 2069.43,129.141 2069.06,129.141 2048.83,52.7659 2023.67,52.7659 2023.67,180.362 2041.72,180.362 2041.72,87.9463 2042.08,87.9463 "/>
    <polygon id="_4218788721234567" class="fil13" points="2124.11,70.9939 2145.07,70.9939 2145.07,180.362 2165.12,180.362 2165.12,70.9939 2186.08,70.9939 2186.08,52.7659 2124.11,52.7659 "/>
    <polygon id="_42187887212345678" class="fil13" points="2214.88,70.9939 2249.52,70.9939 2249.52,52.7659 2194.83,52.7659 2194.83,180.362 2249.52,180.362 2249.52,162.134 2214.88,162.134 2214.88,124.766 2242.41,124.766 2242.41,106.538 2214.88,106.538 "/>
    <polygon id="_421878872123456789" class="fil13" points="2307.66,180.362 2328.26,180.362 2300.37,109.637 2328.26,52.7659 2308.21,52.7659 2282.33,107.997 2281.96,107.997 2281.96,52.7659 2261.91,52.7659 2261.91,180.362 2281.96,180.362 2281.96,141.172 2288.16,129.505 "/>
    <polygon id="_42187887212345678910" class="fil13" points="2380.21,180.362 2400.81,180.362 2400.81,52.7659 2382.95,52.7659 2382.95,129.141 2382.58,129.141 2362.35,52.7659 2337.19,52.7659 2337.19,180.362 2355.24,180.362 2355.24,87.9463 2355.6,87.9463 "/>
    <path id="_4218788721234567891011" class="fil13" d="M2433.62 82.1132c0.0307067,-4.52687 0.971985,-7.74753 2.79431,-9.72221 1.85421,-1.94397 4.3757,-2.91595 7.59518,-2.85572 3.22066,-0.0602324 5.74215,0.911753 7.59518,2.85572 1.82351,1.97468 2.76478,5.19534 2.79549,9.72221l0 68.9011c-0.0307067,4.52687 -0.971985,7.74753 -2.79549,9.72221 -1.85303,1.94397 -4.37452,2.91595 -7.59518,2.85572 -3.21948,0.0602324 -5.74097,-0.911753 -7.59518,-2.85572 -1.82232,-1.97468 -2.7636,-5.19534 -2.79431,-9.72221l0 -68.9011zm-20.0503 67.6256c0,6.83578 1.18457,12.6075 3.523,17.3776 2.33961,4.76899 5.74215,8.41481 10.269,10.9363 4.52687,2.49079 10.086,3.73677 16.6478,3.76747 6.56296,-0.0307067 12.1221,-1.27669 16.6489,-3.76747 4.52569,-2.52149 7.92823,-6.16732 10.2678,-10.9363 2.33961,-4.77017 3.52418,-10.5418 3.52418,-17.3776l0 -66.3501c0,-6.83578 -1.18457,-12.6382 -3.52418,-17.4072 -2.33961,-4.77017 -5.74215,-8.38529 -10.2678,-10.9068 -4.52687,-2.49079 -10.086,-3.73677 -16.6489,-3.76747 -6.56178,0.0307067 -12.1209,1.27669 -16.6478,3.76747 -4.52687,2.52149 -7.92941,6.13661 -10.269,10.9068 -2.33843,4.76899 -3.523,10.5714 -3.523,17.4072l0 66.3501z"/>
    <polygon id="_421878872123456789101112" class="fil13" points="2487.39,180.362 2540.44,180.362 2540.44,162.134 2507.44,162.134 2507.44,52.7659 2487.39,52.7659 "/>
    <path id="_42187887212345678910111213" class="fil13" d="M2567.6 82.1132c0.0307067,-4.52687 0.971985,-7.74753 2.79431,-9.72221 1.85421,-1.94397 4.3757,-2.91595 7.59518,-2.85572 3.22066,-0.0602324 5.74215,0.911753 7.59518,2.85572 1.82351,1.97468 2.76478,5.19534 2.79549,9.72221l0 68.9011c-0.0307067,4.52687 -0.971985,7.74753 -2.79549,9.72221 -1.85303,1.94397 -4.37452,2.91595 -7.59518,2.85572 -3.21948,0.0602324 -5.74097,-0.911753 -7.59518,-2.85572 -1.82232,-1.97468 -2.7636,-5.19534 -2.79431,-9.72221l0 -68.9011zm-20.0503 67.6256c0,6.83578 1.18457,12.6075 3.523,17.3776 2.33961,4.76899 5.74215,8.41481 10.269,10.9363 4.52687,2.49079 10.086,3.73677 16.6478,3.76747 6.56296,-0.0307067 12.1221,-1.27669 16.6489,-3.76747 4.52569,-2.52149 7.92823,-6.16732 10.2678,-10.9363 2.33961,-4.77017 3.52418,-10.5418 3.52418,-17.3776l0 -66.3501c0,-6.83578 -1.18457,-12.6382 -3.52418,-17.4072 -2.33961,-4.77017 -5.74215,-8.38529 -10.2678,-10.9068 -4.52687,-2.49079 -10.086,-3.73677 -16.6489,-3.76747 -6.56178,0.0307067 -12.1209,1.27669 -16.6478,3.76747 -4.52687,2.52149 -7.92941,6.13661 -10.269,10.9068 -2.33843,4.76899 -3.523,10.5714 -3.523,17.4072l0 66.3501z"/>
    <path id="_4218788721234567891011121314" class="fil13" d="M2651.44 127.5l9.11398 0 0 23.5142c0,3.00807 -0.42517,5.43863 -1.27669,7.26095 -0.850339,1.82351 -2.03491,3.12972 -3.58442,3.94935 -1.54951,0.820813 -3.40254,1.21528 -5.52957,1.18457 -2.12585,0.0307067 -3.97888,-0.363756 -5.52839,-1.18457 -1.54951,-0.819632 -2.73408,-2.12585 -3.5856,-3.94935 -0.850339,-1.82232 -1.27551,-4.25288 -1.27551,-7.26095l0 -68.9011c0.0307067,-4.52687 0.971985,-7.74753 2.79431,-9.72221 1.85421,-1.94397 4.3757,-2.91595 7.59518,-2.85572 3.22066,-0.0602324 5.74215,0.911753 7.59518,2.85572 1.82351,1.97468 2.76478,5.19534 2.79549,9.72221l0 13.6704 18.9567 0 0 -12.3949c0,-6.83578 -1.12434,-12.6382 -3.37183,-17.4072 -2.24867,-4.77017 -5.5898,-8.38529 -10.0257,-10.9068 -4.43594,-2.49079 -9.93361,-3.73677 -16.4966,-3.76747 -6.56178,0.0307067 -12.0606,1.27669 -16.4954,3.76747 -4.43594,2.52149 -7.77824,6.13661 -10.0257,10.9068 -2.24867,4.76899 -3.37183,10.5714 -3.37183,17.4072l0 66.3501c0,6.83578 1.12316,12.6075 3.37183,17.3776 2.24749,4.76899 5.5898,8.41481 10.0257,10.9363 4.43475,2.49079 9.93361,3.73677 16.4954,3.76747 6.56296,-0.0307067 12.0606,-1.27669 16.4966,-3.76747 4.43594,-2.52149 7.77706,-6.16732 10.0257,-10.9363 2.24749,-4.77017 3.37183,-10.5418 3.37183,-17.3776l0 -40.4667 -28.0706 0 0 18.228z"/>
    <polygon id="_421878872123456789101112131415" class="fil13" points="2692.46,180.362 2712.51,180.362 2712.51,52.7659 2692.46,52.7659 "/>
    <polygon id="_42187887212345678910111213141516" class="fil13" points="2755.35,180.362 2775.4,180.362 2775.4,52.7659 2755.35,52.7659 "/>
    <polygon id="_4218788721234567891011121314151617" class="fil13" points="2832.81,180.362 2853.41,180.362 2853.41,52.7659 2835.55,52.7659 2835.55,129.141 2835.18,129.141 2814.95,52.7659 2789.8,52.7659 2789.8,180.362 2807.84,180.362 2807.84,87.9463 2808.21,87.9463 "/>
    <polygon id="_421878872123456789101112131415161718" class="fil13" points="2887.86,70.9939 2920.86,70.9939 2920.86,52.7659 2867.81,52.7659 2867.81,180.362 2887.86,180.362 2887.86,127.683 2913.75,127.683 2913.75,109.455 2887.86,109.455 "/>
    <path id="_42187887212345678910111213141516171819" class="fil13" d="M2948.93 82.1132c0.0307067,-4.52687 0.971985,-7.74753 2.79431,-9.72221 1.85421,-1.94397 4.3757,-2.91595 7.59518,-2.85572 3.22066,-0.0602324 5.74215,0.911753 7.59518,2.85572 1.82351,1.97468 2.76478,5.19534 2.79549,9.72221l0 68.9011c-0.0307067,4.52687 -0.971985,7.74753 -2.79549,9.72221 -1.85303,1.94397 -4.37452,2.91595 -7.59518,2.85572 -3.21948,0.0602324 -5.74097,-0.911753 -7.59518,-2.85572 -1.82232,-1.97468 -2.7636,-5.19534 -2.79431,-9.72221l0 -68.9011zm-20.0503 67.6256c0,6.83578 1.18457,12.6075 3.523,17.3776 2.33961,4.76899 5.74215,8.41481 10.269,10.9363 4.52687,2.49079 10.086,3.73677 16.6478,3.76747 6.56296,-0.0307067 12.1221,-1.27669 16.6489,-3.76747 4.52569,-2.52149 7.92823,-6.16732 10.2678,-10.9363 2.33961,-4.77017 3.52418,-10.5418 3.52418,-17.3776l0 -66.3501c0,-6.83578 -1.18457,-12.6382 -3.52418,-17.4072 -2.33961,-4.77017 -5.74215,-8.38529 -10.2678,-10.9068 -4.52687,-2.49079 -10.086,-3.73677 -16.6489,-3.76747 -6.56178,0.0307067 -12.1209,1.27669 -16.6478,3.76747 -4.52687,2.52149 -7.92941,6.13661 -10.269,10.9068 -2.33843,4.76899 -3.523,10.5714 -3.523,17.4072l0 66.3501z"/>
    <path id="_4218788721234567891011121314151617181920" class="fil13" d="M3065.04 180.362c-0.971985,-2.33961 -1.58021,-4.73946 -1.85303,-7.19954 -0.243291,-2.46126 -0.364937,-5.22604 -0.334231,-8.29435l0 -19.6865c0.0307067,-4.43475 -0.395644,-8.44552 -1.21528,-11.9697 -0.850339,-3.55371 -2.24867,-6.59249 -4.19264,-9.11398 -1.94397,-2.52149 -4.58711,-4.49617 -7.89871,-5.89332l0 -0.364937c4.46546,-2.09632 7.74635,-5.25557 9.90409,-9.50844 2.15655,-4.25288 3.21948,-9.63009 3.21948,-16.1931l0 -10.0246c0.0307067,-6.56178 -1.00151,-12.0311 -3.09783,-16.3749 -2.0668,-4.345 -5.28627,-7.59518 -9.6608,-9.75174 -4.40523,-2.15774 -10.0564,-3.22066 -16.9525,-3.22066l-30.2579 0 0 127.596 20.0503 0 0 -51.9498 6.92672 0c3.0376,-0.0307067 5.52957,0.516109 7.44283,1.58021 1.94397,1.06292 3.37183,2.79431 4.31429,5.16463 0.911753,2.39985 1.36645,5.55909 1.36645,9.47774l0 20.0515c0,2.58172 0.0614134,4.70875 0.121646,6.37991 0.090939,1.66997 0.212585,3.0376 0.395644,4.13123 0.151171,1.06292 0.334231,2.00538 0.576341,2.79549 0.213766,0.788926 0.455876,1.57903 0.729874,2.36914l20.4152 0zm-32.6282 -109.368c3.52418,-0.0307067 6.13661,1.0334 7.77706,3.12972 1.64045,2.12585 2.46126,5.46815 2.43055,9.99385l0 12.5779c0,3.37183 -0.486583,6.04567 -1.45857,8.02035 -0.971985,1.97468 -2.33843,3.40254 -4.13123,4.25288 -1.7928,0.820813 -3.94935,1.24598 -6.44014,1.21528l-7.83847 0 0 -39.19 9.6608 0z"/>
    <polygon id="_421878872123456789101112131415161718192021" class="fil13" points="3103.68,52.7659 3075.79,52.7659 3075.79,180.362 3093.29,180.362 3093.29,90.1336 3093.66,90.1336 3108.24,180.362 3127.2,180.362 3140.69,88.8569 3141.05,88.8569 3141.05,180.362 3160.01,180.362 3160.01,52.7659 3132.12,52.7659 3118.63,143.359 3118.26,143.359 "/>
    <path id="_42187887212345678910111213141516171819202122" class="fil13" d="M3219.07 52.7659l-29.3473 0 -20.4152 127.596 18.4098 0 3.46395 -23.1493 24.6067 0 3.46395 23.1493 20.2333 0 -20.4152 -127.596zm-15.8588 22.6025l0.364937 0 9.47774 64.5277 -19.3216 0 9.47892 -64.5277z"/>
    <path id="_4218788721234567891011121314151617181920212223" class="fil13" d="M3246.23 83.3887c0,3.61512 0.334231,7.04837 1.09363,10.2986 0.728693,3.25137 1.94397,6.44132 3.64583,9.60056 1.70068,3.12854 3.94935,6.31849 6.80508,9.59938 2.82502,3.28207 6.3492,6.74484 10.5111,10.4214 4.34382,3.797 7.77706,7.19954 10.2678,10.2076 2.52267,3.0376 4.28358,5.95355 5.34769,8.74904 1.03222,2.76478 1.54951,5.68074 1.5188,8.74904 0,3.03878 -0.42517,5.43863 -1.27551,7.26095 -0.85152,1.82351 -2.03609,3.12972 -3.5856,3.94935 -1.54951,0.820813 -3.40254,1.21528 -5.52839,1.18457 -2.12703,0.0307067 -3.98006,-0.363756 -5.52957,-1.18457 -1.54951,-0.819632 -2.73408,-2.12585 -3.58442,-3.94935 -0.85152,-1.82232 -1.27669,-4.22217 -1.27669,-7.26095l0 -9.11398 -18.9567 0 0 7.83847c0,6.83578 1.12434,12.6075 3.37183,17.3776 2.24867,4.76899 5.5898,8.41481 10.0257,10.9363 4.43475,2.49079 9.93361,3.73677 16.4966,3.76747 6.56178,-0.0307067 12.0606,-1.27669 16.4954,-3.76747 4.43594,-2.52149 7.77824,-6.16732 10.0257,-10.9363 2.24867,-4.77017 3.37183,-10.5418 3.37183,-17.3776 0.0307067,-3.61512 -0.334231,-7.04837 -1.09363,-10.2986 -0.728693,-3.28089 -1.94397,-6.47084 -3.64583,-9.60056 -1.70068,-3.12854 -3.94935,-6.31849 -6.80508,-9.59938 -2.82502,-3.28207 -6.31849,-6.74484 -10.5111,-10.4214 -4.34382,-3.797 -7.77706,-7.19954 -10.2678,-10.2371 -2.52149,-3.00807 -4.28358,-5.92403 -5.34769,-8.71952 -1.03222,-2.76478 -1.54833,-5.71144 -1.5188,-8.74904 0.0307067,-4.52687 0.881046,-7.74753 2.61243,-9.72221 1.73257,-1.94397 4.19264,-2.91595 7.4133,-2.85572 3.22066,-0.0602324 5.68074,0.911753 7.41212,2.85572 1.73257,1.97468 2.58291,5.19534 2.61361,9.72221l0 5.28627 18.9567 0 0 -4.01077c0,-6.83578 -1.12434,-12.6382 -3.3116,-17.4072 -2.21797,-4.77017 -5.52839,-8.38529 -9.90409,-10.9068 -4.37452,-2.49079 -9.81197,-3.73677 -16.3135,-3.76747 -6.50155,0.0307067 -11.939,1.27669 -16.3147,3.76747 -4.37452,2.52149 -7.68612,6.13661 -9.90291,10.9068 -2.18726,4.76899 -3.3116,10.5714 -3.3116,17.4072z"/>
    <polygon id="_421878872123456789101112131415161718192021222324" class="fil13" points="3316.95,180.362 3337,180.362 3337,52.7659 3316.95,52.7659 "/>
    <path id="_423682968" class="fil13" d="M1647.52 204.605l-23.6229 0 0 102.076 16.0407 0 0 -38.3515 7.58219 0c8.02035,-0.0236205 13.9987,-2.18726 17.9847,-6.48856 3.96234,-4.30248 5.92993,-10.5477 5.92993,-18.7382l0 -13.27c0,-8.19042 -1.96759,-14.4369 -5.92993,-18.7382 -3.98596,-4.30248 -9.96432,-6.46494 -17.9847,-6.48974zm0 14.5821c1.70186,-0.0236205 3.13563,0.268093 4.30248,0.875141 1.19047,0.583427 2.06562,1.60383 2.67266,3.01398 0.608229,1.41015 0.899942,3.32931 0.899942,5.73506l0 15.312c0,2.40575 -0.291714,4.3261 -0.899942,5.73506 -0.607048,1.41015 -1.48219,2.40693 -2.67266,3.01398 -1.16685,0.608229 -2.60062,0.899942 -4.30248,0.875141l-7.58219 0 0 -34.5604 7.58219 0z"/>
    <path id="_4236829681" class="fil13" d="M1693.6 228.082c0.0248016,-3.62103 0.778297,-6.19685 2.23686,-7.77706 1.48219,-1.55541 3.49938,-2.33371 6.0752,-2.28411 2.577,-0.0496031 4.59419,0.728693 6.07638,2.28411 1.45857,1.58021 2.21206,4.15603 2.23568,7.77706l0 55.1209c-0.0236205,3.62103 -0.777115,6.19803 -2.23568,7.77706 -1.48219,1.55541 -3.49938,2.33371 -6.07638,2.28529 -2.57582,0.0484221 -4.59301,-0.729874 -6.0752,-2.28529 -1.45857,-1.57903 -2.21206,-4.15603 -2.23686,-7.77706l0 -55.1209zm-16.0395 54.1005c0,5.46815 0.947183,10.086 2.81911,13.9019 1.87075,3.8159 4.59301,6.73185 8.21404,8.74904 3.62103,1.99239 8.06877,2.98918 13.3184,3.01398 5.24966,-0.0248016 9.69741,-1.02159 13.3184,-3.01398 3.62103,-2.01719 6.34329,-4.93315 8.21522,-8.74904 1.87075,-3.8159 2.81911,-8.43371 2.81911,-13.9019l0 -53.0801c0,-5.46815 -0.948364,-10.1096 -2.81911,-13.9255 -1.87193,-3.8159 -4.59419,-6.70823 -8.21522,-8.72542 -3.62103,-1.99239 -8.06877,-2.98918 -13.3184,-3.0128 -5.24966,0.0236205 -9.69741,1.02041 -13.3184,3.0128 -3.62103,2.01719 -6.34329,4.90953 -8.21404,8.72542 -1.87193,3.8159 -2.81911,8.45733 -2.81911,13.9255l0 53.0801z"/>
    <polygon id="_42368296812" class="fil13" points="1736.62,306.681 1779.05,306.681 1779.05,292.099 1752.66,292.099 1752.66,204.605 1736.62,204.605 "/>
    <polygon id="_423682968123" class="fil13" points="1786.05,306.681 1802.09,306.681 1802.09,204.605 1786.05,204.605 "/>
    <polygon id="_4236829681234" class="fil13" points="1809.09,219.187 1825.86,219.187 1825.86,306.681 1841.9,306.681 1841.9,219.187 1858.67,219.187 1858.67,204.605 1809.09,204.605 "/>
    <polygon id="_42368296812345" class="fil13" points="1881.71,219.187 1909.42,219.187 1909.42,204.605 1865.67,204.605 1865.67,306.681 1909.42,306.681 1909.42,292.099 1881.71,292.099 1881.71,262.204 1903.73,262.204 1903.73,247.622 1881.71,247.622 "/>
    <polygon id="_423682968123456" class="fil13" points="1955.93,306.681 1972.41,306.681 1950.1,250.101 1972.41,204.605 1956.37,204.605 1935.67,248.789 1935.37,248.789 1935.37,204.605 1919.33,204.605 1919.33,306.681 1935.37,306.681 1935.37,275.329 1940.33,265.997 "/>
    <polygon id="_4236829681234567" class="fil13" points="2013.97,306.681 2030.45,306.681 2030.45,204.605 2016.16,204.605 2016.16,265.705 2015.87,265.705 1999.68,204.605 1979.56,204.605 1979.56,306.681 1993.99,306.681 1993.99,232.748 1994.29,232.748 "/>
    <polygon id="_42368296812345678" class="fil13" points="2041.97,306.681 2058.01,306.681 2058.01,204.605 2041.97,204.605 "/>
    <polygon id="_423682968123456789" class="fil13" points="2106.28,306.681 2122.75,306.681 2100.44,250.101 2122.75,204.605 2106.71,204.605 2086.01,248.789 2085.72,248.789 2085.72,204.605 2069.68,204.605 2069.68,306.681 2085.72,306.681 2085.72,275.329 2090.67,265.997 "/>
    <polygon id="_42368296812345678910" class="fil13" points="2186.92,306.681 2203.4,306.681 2203.4,204.605 2189.1,204.605 2189.1,265.705 2188.81,265.705 2172.63,204.605 2152.5,204.605 2152.5,306.681 2166.94,306.681 2166.94,232.748 2167.23,232.748 "/>
    <polygon id="_4236829681234567891011" class="fil13" points="2230.96,219.187 2258.66,219.187 2258.66,204.605 2214.91,204.605 2214.91,306.681 2258.66,306.681 2258.66,292.099 2230.96,292.099 2230.96,262.204 2252.97,262.204 2252.97,247.622 2230.96,247.622 "/>
    <path id="_423682968123456789101112" class="fil13" d="M2292.64 264.392l7.29048 0 0 18.8114c0,2.40575 -0.340136,4.3509 -1.02041,5.80829 -0.680271,1.45857 -1.62864,2.50378 -2.86753,3.16043 -1.24008,0.65547 -2.72227,0.971985 -4.42413,0.947183 -1.70068,0.0248016 -3.18405,-0.291714 -4.42294,-0.947183 -1.24008,-0.656651 -2.18726,-1.70186 -2.86753,-3.16043 -0.680271,-1.45739 -1.02159,-3.40254 -1.02159,-5.80829l0 -55.1209c0.0248016,-3.62103 0.778297,-6.19685 2.23686,-7.77706 1.48219,-1.55541 3.49938,-2.33371 6.0752,-2.28411 2.577,-0.0496031 4.59419,0.728693 6.07638,2.28411 1.45857,1.58021 2.21206,4.15603 2.23568,7.77706l0 10.9363 15.1656 0 0 -9.9159c0,-5.46815 -0.898761,-10.1096 -2.69746,-13.9255 -1.7987,-3.8159 -4.47255,-6.70823 -8.02035,-8.72542 -3.5478,-1.99239 -7.94713,-2.98918 -13.1968,-3.0128 -5.24966,0.0236205 -9.64899,1.02041 -13.1968,3.0128 -3.54898,2.01719 -6.22165,4.90953 -8.02035,8.72542 -1.7987,3.8159 -2.69746,8.45733 -2.69746,13.9255l0 53.0801c0,5.46815 0.898761,10.086 2.69746,13.9019 1.7987,3.8159 4.47137,6.73185 8.02035,8.74904 3.5478,1.99239 7.94713,2.98918 13.1968,3.01398 5.24966,-0.0248016 9.64899,-1.02159 13.1968,-3.01398 3.5478,-2.01719 6.22165,-4.93315 8.02035,-8.74904 1.7987,-3.8159 2.69746,-8.43371 2.69746,-13.9019l0 -32.3731 -22.456 0 0 14.5821z"/>
    <polygon id="_42368296812345678910111213" class="fil13" points="2341.49,219.187 2369.19,219.187 2369.19,204.605 2325.45,204.605 2325.45,306.681 2369.19,306.681 2369.19,292.099 2341.49,292.099 2341.49,262.204 2363.51,262.204 2363.51,247.622 2341.49,247.622 "/>
    <path id="_4236829681234567891011121314" class="fil13" d="M2428.98 306.681c-0.778297,-1.87193 -1.2637,-3.7911 -1.48219,-5.75987 -0.194869,-1.96877 -0.291714,-4.18083 -0.268093,-6.63501l0 -15.749c0.0248016,-3.5478 -0.315334,-6.75665 -0.971985,-9.57576 -0.680271,-2.84391 -1.7987,-5.27328 -3.35412,-7.29048 -1.55541,-2.01719 -3.66945,-3.59741 -6.31849,-4.71584l0 -0.291714c3.57261,-1.67588 6.19685,-4.20445 7.92233,-7.60699 1.72666,-3.40254 2.577,-7.70384 2.577,-12.9535l0 -8.02035c0.0236205,-5.24966 -0.801917,-9.62419 -2.47897,-13.0999 -1.65344,-3.47458 -4.22926,-6.0752 -7.72864,-7.80068 -3.52418,-1.72548 -8.04515,-2.577 -13.5617,-2.577l-24.2063 0 0 102.076 16.0407 0 0 -41.5591 5.54138 0c2.42937,-0.0248016 4.42294,0.413359 5.95355,1.2637 1.55541,0.850339 2.69746,2.23568 3.45096,4.13123 0.729874,1.92035 1.09363,4.44775 1.09363,7.58337l0 16.0395c0,2.0668 0.0496031,3.76747 0.0980252,5.1044 0.0732236,1.33692 0.170068,2.43055 0.315334,3.30569 0.121646,0.850339 0.268093,1.60383 0.461781,2.23568 0.170068,0.631849 0.364937,1.2637 0.583427,1.89555l16.3324 0zm-26.1019 -87.494c2.81911,-0.0236205 4.90835,0.826719 6.22165,2.50378 1.31212,1.70068 1.96877,4.37452 1.94397,7.99555l0 10.0623c0,2.69746 -0.388558,4.8363 -1.16685,6.41652 -0.777115,1.57903 -1.87075,2.72109 -3.30451,3.40254 -1.43495,0.65547 -3.16043,0.995605 -5.15282,0.971985l-6.27007 0 0 -31.3527 7.72864 0z"/>
    <polygon id="_423682968123456789101112131415" class="fil13" points="2437.73,306.681 2453.77,306.681 2453.77,204.605 2437.73,204.605 "/>
    <path id="_42368296812345678910111213141516" class="fil13" d="M2483.66 306.681c1.28732,0.145266 2.55102,0.21849 3.76629,0.243291 1.21528,0.0484221 2.52858,0.0484221 3.96234,0.0484221 3.0624,0.0248016 5.95355,-0.364937 8.70062,-1.14205 2.77069,-0.778297 5.20124,-2.13884 7.3637,-4.03439 2.13884,-1.89555 3.83952,-4.52097 5.0796,-7.87509 1.2389,-3.32931 1.87193,-7.53377 1.89555,-12.6134l0 -76.703 -16.0407 0 0 77.8698c-0.0236205,2.60062 -0.43698,4.61781 -1.2389,6.02678 -0.826719,1.43377 -1.92035,2.40693 -3.30569,2.96556 -1.36054,0.535005 -2.91595,0.801917 -4.64143,0.777115 -0.875141,0 -1.7987,0 -2.77069,-0.0236205 -0.948364,0 -1.87193,-0.0484221 -2.77069,-0.121646l0 14.5821z"/>
    <polygon id="_4236829681234567891011121314151617" class="fil13" points="2541.41,219.187 2569.12,219.187 2569.12,204.605 2525.37,204.605 2525.37,306.681 2569.12,306.681 2569.12,292.099 2541.41,292.099 2541.41,262.204 2563.43,262.204 2563.43,247.622 2541.41,247.622 "/>
    <polygon id="_423682968123456789101112131415161718" class="fil13" points="2601.2,204.605 2578.89,204.605 2578.89,306.681 2592.89,306.681 2592.89,234.499 2593.18,234.499 2604.84,306.681 2620.01,306.681 2630.8,233.478 2631.09,233.478 2631.09,306.681 2646.26,306.681 2646.26,204.605 2623.95,204.605 2613.15,277.078 2612.86,277.078 "/>
    <path id="_42368296812345678910111213141516171819" class="fil13" d="M2682.13 204.605l-24.2063 0 0 102.076 25.2267 0c8.04515,-0.0248016 14.0967,-2.09042 18.2043,-6.19803 4.08281,-4.10643 6.14842,-10.1096 6.14842,-18.0083l0 -8.31206c0.0484221,-5.41973 -0.875141,-9.96432 -2.74589,-13.6586 -1.87193,-3.67063 -4.95795,-6.3681 -9.21201,-8.06877l0 -0.291714c3.54898,-1.65226 6.17323,-4.18083 7.85028,-7.53377 1.67706,-3.35412 2.5274,-7.6566 2.50378,-12.8815l0 -3.64583c0.0236205,-5.24966 -0.801917,-9.62419 -2.47897,-13.0999 -1.65344,-3.47458 -4.22926,-6.0752 -7.72864,-7.80068 -3.52418,-1.72548 -8.04515,-2.577 -13.5617,-2.577l0 0zm-1.02041 56.1425c2.43055,-0.0248016 4.39814,0.340136 5.92993,1.09363 1.53061,0.777115 2.64904,2.06562 3.35412,3.86432 0.728693,1.82232 1.06883,4.3013 1.06883,7.43692l0 8.89431c0,2.50378 -0.315334,4.49617 -0.947183,5.97954 -0.631849,1.48219 -1.58021,2.5274 -2.81911,3.15925 -1.21528,0.631849 -2.74707,0.947183 -4.54577,0.923563l-9.18602 0 0 -31.3515 7.14521 0zm0.583427 -41.5603c2.81911,-0.0236205 4.90835,0.826719 6.22165,2.50378 1.31212,1.70068 1.96877,4.37452 1.94397,7.99555l0 5.68782c0,2.69746 -0.388558,4.8363 -1.16685,6.41534 -0.777115,1.58021 -1.87075,2.72227 -3.30451,3.40254 -1.43495,0.656651 -3.16043,0.996786 -5.15282,0.973166l-6.27007 0 0 -26.9782 7.72864 0z"/>
    <polygon id="_4236829681234567891011121314151617181920" class="fil13" points="2733.17,219.187 2760.87,219.187 2760.87,204.605 2717.13,204.605 2717.13,306.681 2760.87,306.681 2760.87,292.099 2733.17,292.099 2733.17,262.204 2755.19,262.204 2755.19,247.622 2733.17,247.622 "/>
    <path id="_423682968123456789101112131415161718192021" class="fil13" d="M2820.66 306.681c-0.778297,-1.87193 -1.2637,-3.7911 -1.48219,-5.75987 -0.194869,-1.96877 -0.291714,-4.18083 -0.268093,-6.63501l0 -15.749c0.0248016,-3.5478 -0.315334,-6.75665 -0.971985,-9.57576 -0.680271,-2.84391 -1.7987,-5.27328 -3.35412,-7.29048 -1.55541,-2.01719 -3.66945,-3.59741 -6.31849,-4.71584l0 -0.291714c3.57261,-1.67588 6.19685,-4.20445 7.92233,-7.60699 1.72666,-3.40254 2.577,-7.70384 2.577,-12.9535l0 -8.02035c0.0236205,-5.24966 -0.801917,-9.62419 -2.47897,-13.0999 -1.65344,-3.47458 -4.22926,-6.0752 -7.72864,-7.80068 -3.52418,-1.72548 -8.04515,-2.577 -13.5617,-2.577l-24.2063 0 0 102.076 16.0407 0 0 -41.5591 5.54138 0c2.42937,-0.0248016 4.42294,0.413359 5.95355,1.2637 1.55541,0.850339 2.69746,2.23568 3.45096,4.13123 0.729874,1.92035 1.09363,4.44775 1.09363,7.58337l0 16.0395c0,2.0668 0.0496031,3.76747 0.0980252,5.1044 0.0732236,1.33692 0.170068,2.43055 0.315334,3.30569 0.121646,0.850339 0.268093,1.60383 0.461781,2.23568 0.170068,0.631849 0.364937,1.2637 0.583427,1.89555l16.3324 0zm-26.1019 -87.494c2.81911,-0.0236205 4.90835,0.826719 6.22165,2.50378 1.31212,1.70068 1.96877,4.37452 1.94397,7.99555l0 10.0623c0,2.69746 -0.388558,4.8363 -1.16685,6.41652 -0.777115,1.57903 -1.87075,2.72109 -3.30451,3.40254 -1.43495,0.65547 -3.16043,0.995605 -5.15282,0.971985l-6.27007 0 0 -31.3527 7.72864 0z"/>
   </g>
   <g>
    <path id="_423679680" class="fil14" d="M535.844 357.518c9.26043,4.56112 41.5013,-1.43613 51.801,-5.62051 13.9089,-5.65003 26.5802,-12.6157 37.285,-23.3572 25.8727,-25.9637 35.2466,-48.9925 35.2466,-86.0579 0,-80.8779 0.14999,-161.338 -0.438161,-242.204 -4.73828,-1.31921 -19.5401,2.42465 -24.8618,4.2139 -5.71735,1.92389 -14.5125,6.73658 -19.3806,10.5749 -11.8658,9.35845 -20.4944,20.74 -25.3602,35.2891 -5.95828,17.8134 -3.74031,37.5401 -3.74031,56.1873l0 120.59c0,19.6015 0.895218,41.3371 0.00708616,60.6682 -1.14441,24.9043 -11.3319,44.3806 -30.8012,59.0797 -2.81321,2.12467 -6.22401,4.36271 -9.37263,5.97127 -2.88407,1.47392 -8.05933,3.04469 -10.3848,4.66505z"/>
    <path id="_423689184" class="fil15" d="M386.38 260.315c3.89975,-4.9426 5.27565,-21.7037 34.7694,-41.369 30.585,-20.3928 81.2192,-35.5654 117.759,-37.1268 10.5926,-0.453514 22.1667,-0.370842 27.1376,-11.5859l1.64753 -36.2091c-10.8607,-3.06713 -56.7885,4.5505 -69.5483,7.74399 -22.0238,5.51067 -37.4267,11.4819 -57.3707,21.5337 -23.7174,11.952 -49.1402,35.4721 -56.0161,62.357 -1.94161,7.594 -2.8073,28.158 1.62155,34.656z"/>
    <path id="_423679152" class="fil16" d="M421.737 310.597c0.860968,-6.53462 -6.54407,-22.2151 20.1566,-40.201 22.1419,-14.9164 57.4333,-24.3291 84.6335,-26.4172 3.94699,-0.303524 11.639,-0.41454 15.0238,-1.04757 8.45379,-1.58258 14.7888,-6.93381 16.6714,-15.4785l-0.0259826 -31.3067c-10.0742,-2.84509 -50.6731,4.66624 -62.3854,7.60109 -32.8491,8.23176 -72.1879,23.6512 -87.4255,55.7811 -11.2079,23.6335 9.54388,50.0082 13.3515,51.0688z"/>
    <path id="_423686256" class="fil17" d="M383.605 191.469c0.86333,-0.240929 13.1779,-15.1868 16.5096,-17.6871 25.2244,-18.9366 33.5789,-26.6699 68.3944,-38.2783 18.639,-6.21456 37.9452,-10.7143 57.4428,-13.4224 10.484,-1.45621 18.2221,-2.00184 22.3793,-13.4224l0.369661 -34.5651c-8.89431,-2.51204 -49.5889,5.51539 -60.8394,9.14705 -17.7697,5.73743 -33.2766,11.6674 -49.1779,21.6919 -14.6471,9.23445 -27.1861,19.7798 -37.4149,33.4608 -9.56986,12.8011 -20.9526,36.8598 -17.6634,53.0753z"/>
    <path id="_423686112" class="fil18" d="M531.021 357.664c-5.88742,-2.89942 -23.6914,-2.5959 -40.3262,-14.3223 -14.7841,-10.4214 -14.7924,-23.2036 -0.00354308,-33.6262 12.0854,-8.51756 27.0372,-11.7654 41.4635,-14.0625 7.5007,-1.1952 13.5192,-4.96267 15.7514,-12.0146l0.79365 -26.1007c-4.45483,-1.25897 -27.6419,1.77272 -33.5896,2.79077 -23.6678,4.05446 -63.9892,15.5187 -72.3036,40.214 -3.14744,9.34664 0.442885,21.399 6.13307,29.0285 6.09528,8.17034 11.3107,11.9473 19.983,17.2808 15.4573,9.50608 44.3287,14.4192 62.0984,10.8123z"/>
   </g>
  </g>
 </g>
</svg>
